<?xml version="1.0" standalone="no"?>
<!DOCTYPE svg PUBLIC "-//W3C//DTD SVG 1.1//EN" "http://www.w3.org/Graphics/SVG/1.1/DTD/svg11.dtd" >
<svg xmlns="http://www.w3.org/2000/svg" xmlns:xlink="http://www.w3.org/1999/xlink" version="1.1">
<metadata>
Created by FontForge 20150824 at Sat Feb 27 03:37:14 2016
 By Everything Fonts
Copyright (c) 1992 Adobe Systems Incorporated.  All Rights Reserved.Forte is a trademark of The Monotype Corporation plc.
</metadata>
<defs>
<font id="ForteMTRegular" horiz-adv-x="333" >
  <font-face 
    font-family="ForteMTRegular"
    font-weight="500"
    font-style="italic"
    font-stretch="normal"
    units-per-em="1000"
    panose-1="0 0 0 0 0 0 0 0 0 0"
    ascent="800"
    descent="-200"
    x-height="467"
    cap-height="677"
    bbox="-243 -250 1265 936"
    underline-thickness="50"
    underline-position="-150"
    slope="-15"
    unicode-range="U+0020-FB02"
  />
<missing-glyph horiz-adv-x="225" 
 />
    <glyph glyph-name=".notdef" horiz-adv-x="225" 
 />
    <glyph glyph-name=".null" horiz-adv-x="0" 
 />
    <glyph glyph-name="nonmarkingreturn" 
 />
    <glyph glyph-name="space" unicode=" " horiz-adv-x="225" 
 />
    <glyph glyph-name="exclam" unicode="!" horiz-adv-x="365" 
d="M105 180q-33 0 -33 33q0 21 30.5 134.5t60.5 197.5q11 32 26 48q18 20 55.5 33.5t73.5 13.5q33 0 33 -23t-64 -187t-81 -189q-14 -20 -48 -40.5t-53 -20.5zM70 -2q-19 0 -30 10.5t-11 28.5q0 8 5.5 25.5t17.5 42t38.5 42t61.5 17.5q19 0 31 -8t12 -21q0 -39 -30 -87
q-11 -18 -43 -34t-52 -16z" />
    <glyph glyph-name="quotedbl" unicode="&#x22;" horiz-adv-x="355" 
d="M184 457h-53l4 136l25 117h100l-25 -117zM345 457h-53l5 136l25 117h100l-25 -117z" />
    <glyph glyph-name="numbersign" unicode="#" horiz-adv-x="668" 
d="M38 404v93h151l41 187h92l-41 -187h173l40 187h93l-40 -187h82v-93h-100l-31 -147h131v-93h-148l-41 -185h-92l40 185h-175l-38 -185h-93l39 185h-83v93h102l31 147h-133zM437 404h-174l-30 -147h173z" />
    <glyph glyph-name="dollar" unicode="$" horiz-adv-x="542" 
d="M388 676l40 -13q12 39 39 39q10 0 10 -12q0 -8 -14 -44q64 -34 64 -83q0 -32 -21.5 -63.5t-43.5 -31.5q-25 0 -46 45l-45 -133q36 -33 55 -54.5t36.5 -57.5t17.5 -74q0 -85 -68.5 -146t-173.5 -71q-35 -93 -44 -93q-8 0 -8 11t20 84l-49 10q-8 -27 -24.5 -65.5
t-22.5 -38.5q-9 0 -9 12q0 9 25 105q-99 45 -99 73q0 27 39 64.5t60 37.5q14 0 34 -23q5 -6 10 -11l44 138q-29 22 -45 36t-41 40t-37.5 55t-12.5 61q0 13 4.5 33t17 50.5t43 59.5t73.5 45q55 21 130 18q4 9 15 15.5t23 6.5q7 0 7 -10q0 -5 -3 -15zM282 476l41 124
q-16 2 -17 2q-45 0 -45 -64q0 -35 21 -62zM307 189l-32 -101q21 -7 31 -7q20 0 20 36q0 33 -19 72zM338 411l53 142q-23 25 -33 32l-50 -143zM279 224l-32 31l-46 -136l39 -20z" />
    <glyph glyph-name="percent" unicode="%" horiz-adv-x="854" 
d="M288 691q4 2 9 2q22 0 42 -38t20 -80q0 -36 -15 -86.5t-41.5 -100.5t-69.5 -85t-92 -35q-50 0 -83.5 40.5t-33.5 99.5q0 43 14.5 92.5t41 96.5t72 78.5t100.5 31.5q20 0 36 -16zM259 681q-51 -8 -86.5 -87.5t-35.5 -142.5q0 -40 19.5 -79.5t39.5 -39.5q25 0 50.5 71.5
t25.5 130.5q0 74 -36 107q-6 6 -6 9q0 4 29 31zM772 379q29 7 50 -30.5t21 -83.5q0 -56 -25.5 -126t-76 -126t-107.5 -56q-55 0 -88.5 38t-33.5 100q0 117 67.5 208t153.5 91q32 0 39 -15zM747 368q-32 -7 -50 -29q-37 -43 -55.5 -102.5t-18.5 -103.5q0 -41 22 -78t37 -37
q23 0 49.5 71t26.5 127q0 85 -46 121q32 29 35 31zM302 257l20 31l9 15q144 228 220 323q62 79 102 79q22 0 38 -17.5t16 -42.5t-17.5 -55.5t-79.5 -121.5l-17 -24l-15 -22q-146 -207 -282 -375q-36 -46 -61.5 -68t-48.5 -22q-16 0 -27 10t-11 24q0 15 32 69.5t122 196.5z
" />
    <glyph glyph-name="ampersand" unicode="&#x26;" horiz-adv-x="573" 
d="M282 411q72 64 72 163q0 36 -16 36q-26 0 -46.5 -41t-20.5 -91q0 -30 11 -67zM197 226q-31 -38 -31 -76q0 -28 18 -46t44 -18q25 0 48 15q-18 22 -45 68t-34 57zM318 54l-26 -15q-53 -29 -86 -40t-68 -11q-55 0 -90 32t-35 82q0 41 30.5 85t99.5 104q7 6 12.5 11.5
t8.5 7.5q-12 70 -12 106q0 103 63 180t147 77q62 0 99 -30.5t37 -81.5q0 -29 -11.5 -55.5t-41.5 -57t-55 -52t-78 -63.5q28 -67 110 -140q6 3 11 7l7.5 6t3.5 2q3 0 6.5 -3.5t3.5 -6.5q0 -2 -12 -20q42 -32 76 -50q27 -14 27 -22q0 -29 -36 -68t-82 -39q-31 0 -55.5 12.5
t-53.5 42.5z" />
    <glyph glyph-name="quotesingle" unicode="'" horiz-adv-x="191" 
d="M183 457h-54l6 133l25 120h100l-25 -120z" />
    <glyph glyph-name="parenleft" unicode="(" horiz-adv-x="344" 
d="M240 500q-64 -119 -64 -263q0 -146 102 -181q16 -6 16 -10q0 -19 -30 -33.5t-70 -14.5q-42 0 -74 17t-50 41t-29 55t-14.5 55t-3.5 45q0 78 25 154t61.5 130t77.5 96t74 63t49 21q26 0 26 -13q0 -7 -26 -45q-34 -52 -70 -117z" />
    <glyph glyph-name="parenright" unicode=")" horiz-adv-x="323" 
d="M105 135q72 119 72 234q0 71 -26.5 124.5t-75.5 80.5q-21 11 -21 24q0 20 33 49.5t67 29.5q19 0 42.5 -12t50 -38.5t44 -79t17.5 -122.5q0 -139 -75 -251q-39 -60 -99.5 -118t-94.5 -58q-17 0 -17 15q0 14 23 38q28 33 60 84z" />
    <glyph glyph-name="asterisk" unicode="*" 
d="M212 620l11 11q44 45 61 45q13 0 22 -9t9 -22q0 -12 -12 -27.5t-50 -53.5q19 -21 47 -42q22 -16 22 -24q0 -18 -36 -18q-24 0 -40.5 6.5t-56.5 27.5q-44 -21 -73 -21q-23 0 -44 11t-21 24q0 14 26 14q31 0 58 11q-54 58 -54 73q0 17 34 35.5t48 18.5q28 0 49 -60z" />
    <glyph glyph-name="plus" unicode="+" horiz-adv-x="667" 
d="M61 278v105h219v220h105v-220h220v-105h-220v-218h-105v218h-219z" />
    <glyph glyph-name="comma" unicode="," horiz-adv-x="219" 
d="M-33 -87q-29 0 -29 33q0 35 22.5 90t48.5 86q23 26 68 26t45 -29q0 -25 -28 -84t-54 -85q-35 -37 -73 -37z" />
    <glyph glyph-name="hyphen" unicode="-" horiz-adv-x="250" 
d="M83 152q-25 0 -41.5 14.5t-16.5 37.5q0 15 8 37t17 30q22 21 94 21q51 0 73 -9.5t22 -31.5q0 -26 -14 -45q-15 -21 -66 -37.5t-76 -16.5z" />
    <glyph glyph-name="period" unicode="." horiz-adv-x="198" 
d="M-9 -1q-44 0 -44 30q0 19 13.5 54t28.5 49q14 13 42 22.5t50 9.5q30 0 30 -35q0 -33 -19 -81q-5 -14 -11.5 -20.5t-21.5 -12.5q-43 -16 -68 -16z" />
    <glyph glyph-name="slash" unicode="/" horiz-adv-x="469" 
d="M381 455l-106 -209q-44 -87 -96.5 -178.5t-68.5 -107.5q-22 -24 -51 -24q-15 0 -25.5 9.5t-10.5 23.5q0 23 80 216l127 313q85 209 165 209q58 0 58 -65q0 -49 -72 -187z" />
    <glyph glyph-name="zero" unicode="0" horiz-adv-x="531" 
d="M410 625q48 1 78.5 -52t30.5 -120q0 -65 -25.5 -144t-67 -149t-101.5 -117t-121 -47q-81 0 -130 59t-49 156q0 109 45.5 210t120 162.5t154.5 61.5q38 0 65 -20zM375 609q-42 -1 -85 -53t-71 -130.5t-28 -154.5q0 -61 29.5 -120t60.5 -59q37 0 72 104.5t35 194.5
q0 50 -16 94.5t-41 65.5q-6 4 -6 7q0 9 50 51z" />
    <glyph glyph-name="one" unicode="1" horiz-adv-x="375" 
d="M367 597q0 -37 -34 -129q-37 -99 -76 -249q-33 -126 -55 -160q-11 -18 -44 -39.5t-70 -21.5q-25 0 -45 13t-20 30q0 35 153 426l-30 -11q-29 -12 -36 -12q-20 0 -20 34t20 54q11 9 111 56l15 6q84 39 97 39q34 0 34 -36z" />
    <glyph glyph-name="two" unicode="2" horiz-adv-x="448" 
d="M222 175l-18 -21q26 -6 56 -6q40 0 73.5 4.5t52 9t20.5 4.5q5 0 5 -2q0 -20 -22.5 -56t-49.5 -63q-49 -49 -155 -49q-68 0 -118 19.5t-50 45.5q0 17 50 74q29 32 65 81q63 88 86 136.5t23 105.5q0 23 -4 40.5t-10 27.5t-13 16.5t-12 8.5t-8 2q-9 0 -21.5 -43.5
t-12.5 -81.5q0 -29 9 -59q4 -12 4 -16q0 -14 -15 -14q-14 0 -36.5 11.5t-36.5 24.5q-31 29 -31 87q0 77 59 129.5t147 52.5q65 0 110.5 -41.5t45.5 -100.5q0 -58 -44.5 -132.5t-148.5 -194.5z" />
    <glyph glyph-name="three" unicode="3" horiz-adv-x="531" 
d="M138 63q43 0 100 63.5t57 123.5q0 68 -71 80q-25 5 -25 19q0 9 23 31q75 64 75 139q0 39 -16 39q-20 0 -52 -45t-45 -91q-4 -18 -14 -18q-15 0 -40 28t-25 58q0 60 65.5 109.5t145.5 49.5q64 0 106 -35.5t42 -90.5q0 -29 -10.5 -52.5t-33.5 -41t-39.5 -26.5t-46.5 -23
q138 -8 138 -106q0 -51 -50 -120t-133 -122t-163 -53q-61 0 -101 38.5t-40 96.5q0 62 58 116t125 54q18 0 18 -13q0 -6 -14 -19q-48 -43 -48 -129q0 -36 14 -60z" />
    <glyph glyph-name="four" unicode="4" horiz-adv-x="490" 
d="M229 236l-33 -2q-72 -5 -89 -5q-46 0 -60.5 7.5t-14.5 30.5q0 22 35 108q10 25 25 64q37 94 58 128q22 34 63.5 54.5t74.5 20.5q37 0 37 -19q0 -24 -93 -155q-39 -55 -79 -120l114 5q34 119 155 119q38 0 38 -20q0 -18 -31 -100q2 0 17.5 1t18.5 1q11 0 11 -5
q0 -3 -12.5 -25t-32.5 -46t-36 -27q-38 -126 -44 -157q-7 -42 -19 -51q-74 -45 -125 -45q-20 0 -35.5 10t-15.5 23q0 19 23 83.5t50 121.5z" />
    <glyph glyph-name="five" unicode="5" horiz-adv-x="490" 
d="M231 509l-36 -66q68 27 116 27q67 0 104 -31.5t37 -89.5q0 -76 -54 -160.5t-126.5 -138.5t-127.5 -54q-11 0 -28 4t-44.5 16.5t-46 45t-18.5 79.5t15.5 84t37 57t46.5 33.5t42 17.5t26 4q16 0 21.5 -5t4.5 -12q-72 -86 -72 -203q0 -49 19 -49q44 0 91.5 73.5t47.5 129.5
q0 50 -21 73.5t-67 23.5q-24 0 -67 -9q-16 -4 -25 -4q-14 0 -23.5 9.5t-9.5 24.5q0 14 19.5 74t37.5 101q8 18 11 25q14 34 25 43t40 9q107 0 158 -3q40 -2 54.5 -6t14.5 -14q0 -24 -50.5 -69t-101.5 -45q-11 0 -50 5z" />
    <glyph glyph-name="six" unicode="6" horiz-adv-x="510" 
d="M224 375q-26 0 -51 -43t-25 -89q0 -61 33.5 -106t79.5 -45q17 0 26 9q16 17 26 58.5t10 86.5q0 60 -26.5 94.5t-72.5 34.5zM279 463l-30 -37q67 43 114 43q52 0 86.5 -37.5t34.5 -93.5q0 -39 -12 -84t-37.5 -91t-60 -83t-84.5 -60.5t-107 -23.5q-90 0 -137.5 39
t-47.5 112q0 56 33 138t76.5 153t76.5 119.5t43 58.5t17.5 15t36 11t72.5 6q56 0 56 -32q0 -16 -35 -47q-26 -24 -68 -74z" />
    <glyph glyph-name="seven" unicode="7" horiz-adv-x="467" 
d="M193 356l90 188q-34 3 -111 -26q-69 -25 -97 -25q-27 0 -27 22q0 17 14 47t33 53q15 19 27.5 23t43.5 3l110 -3q113 -2 153 -21q16 -6 16 -22q0 -13 -18 -52l-87 -187q3 0 23.5 0.5t24.5 0.5q25 0 25 -7q0 -11 -10.5 -30t-23.5 -31q-30 -30 -91 -44l-66 -161
q-13 -33 -20 -39q-22 -20 -56.5 -32.5t-69.5 -12.5q-22 0 -35 8t-13 22t37 82l65 116q-2 0 -12 -1t-12 -1q-42 0 -42 32q0 10 8 31q19 45 30.5 54t42.5 10q21 0 48 3z" />
    <glyph glyph-name="eight" unicode="8" horiz-adv-x="490" 
d="M138 280l37 25q-97 87 -97 165q0 71 59.5 121.5t142.5 50.5q62 0 62 -20q0 -9 -14 -9q-32 0 -58 -44.5t-26 -84.5q0 -49 40 -80q59 62 59 120q0 26 -15 44q-4 4 -4 7q0 9 23.5 22t46.5 13q29 0 47.5 -20t18.5 -51q0 -45 -27.5 -86t-93.5 -95q78 -77 78 -147
q0 -81 -79 -151t-171 -70q-68 0 -111 35t-43 90q0 47 26 81t99 84zM166 116q0 -68 30 -68q25 0 51.5 47.5t26.5 79.5q0 62 -43 87q-65 -57 -65 -146z" />
    <glyph glyph-name="nine" unicode="9" horiz-adv-x="490" 
d="M280 330q40 96 40 182q0 36 -11.5 58.5t-30.5 22.5q-28 0 -63 -49.5t-35 -105.5q0 -41 27.5 -70.5t72.5 -37.5zM269 304q-45 -29 -72 -39.5t-59 -10.5q-52 0 -84 36t-32 94q0 97 86 179t187 82q31 0 61 -11.5t58.5 -35.5t46 -67t17.5 -99q0 -97 -62.5 -200t-158.5 -169.5
t-187 -66.5q-29 0 -29 16q0 9 22 19q60 27 117.5 103t88.5 170z" />
    <glyph glyph-name="colon" unicode=":" horiz-adv-x="292" 
d="M127 158q27 -1 44 -11t17 -26q0 -43 -38.5 -83.5t-79.5 -40.5q-22 0 -35.5 11.5t-13.5 30.5q0 20 16.5 59t48.5 52q19 8 41 8zM158 282q-21 0 -36 14.5t-15 34.5q0 4 1.5 13.5t8.5 28.5t19 35.5t36.5 29t56.5 12.5q46 0 46 -25q0 -23 -17.5 -64t-31.5 -53
q-11 -10 -32 -18t-36 -8z" />
    <glyph glyph-name="semicolon" unicode=";" horiz-adv-x="292" 
d="M158 303q-34 0 -34 31q0 30 33 84q20 33 79 33q53 0 53 -49q0 -26 -12.5 -49t-31.5 -30q-49 -20 -87 -20zM63 -101q-22 0 -35 13.5t-13 35.5q0 60 60 158q31 51 78 51q22 0 36 -14t14 -35q0 -41 -46 -125t-94 -84z" />
    <glyph glyph-name="less" unicode="&#x3c;" horiz-adv-x="667" 
d="M605 170v-114l-543 227v94l543 227v-113l-400 -161z" />
    <glyph glyph-name="equal" unicode="=" horiz-adv-x="667" 
d="M62 395v105h543v-105h-543zM62 162v105h543v-105h-543z" />
    <glyph glyph-name="greater" unicode="&#x3e;" horiz-adv-x="667" 
d="M62 491v113l543 -226v-95l-543 -227v114l400 160z" />
    <glyph glyph-name="question" unicode="?" horiz-adv-x="406" 
d="M255 308q15 0 52 1t51 1q18 0 18 -12q0 -10 -12.5 -30t-26.5 -34q-56 -53 -181 -53q-94 0 -94 36q0 11 30 48q127 155 127 264q0 32 -13 52.5t-35 20.5q-13 0 -31 -46q-26 -58 -26 -117q0 -21 8 -43q2 -6 2 -10q0 -9 -12 -9q-31 0 -59 44.5t-28 93.5q0 70 48 114t123 44
q80 0 138 -43t58 -103q0 -37 -13.5 -71t-39.5 -64.5t-41.5 -46t-42.5 -37.5zM92 -4q-19 0 -32 12.5t-13 31.5q0 18 11 46.5t23 39.5q36 36 104 36q45 0 45 -32q0 -14 -9 -48.5t-20 -44.5q-14 -14 -53 -27.5t-56 -13.5z" />
    <glyph glyph-name="at" unicode="@" horiz-adv-x="1015" 
d="M893 10l89 -1q-8 -15 -16.5 -29t-45.5 -52.5t-80.5 -65.5t-121 -49.5t-167.5 -22.5q-230 0 -362 117t-132 322q0 63 15 128t51 133t89.5 120t138.5 85.5t189 33.5q182 0 300 -107.5t118 -273.5q0 -135 -90.5 -242.5t-203.5 -107.5q-30 0 -50 7t-28.5 22t-11 25t-4.5 28
q-70 -81 -150 -81q-75 0 -126 63t-51 156q0 119 78.5 215t175.5 96q92 0 147 -89l16 75h88l-70 -328q-15 -70 -15 -76q0 -13 10.5 -22.5t24.5 -9.5q21 0 51.5 19.5t61.5 52.5t52.5 86.5t21.5 112.5q0 132 -99.5 220t-250.5 88q-176 0 -291 -119.5t-115 -301.5
q0 -178 111.5 -276.5t311.5 -98.5q149 0 255 67q34 22 50 37t36 44zM333 212q0 -61 29.5 -101t75.5 -40q68 0 123 75.5t55 168.5q0 65 -31 103.5t-84 38.5q-64 0 -116 -75.5t-52 -169.5z" />
    <glyph glyph-name="A" unicode="A" horiz-adv-x="729" 
d="M409 277l-43 190l-90 -190h133zM324 595l-30 54q35 25 112 25q71 0 102 -56.5t52 -187.5q30 -183 133 -376q-76 -55 -121 -55q-50 0 -74 35t-57 134q-56 -24 -89 -24q-18 0 -67 2t-68 2q-42 -89 -78 -120t-108 -31q-49 0 -49 25q0 15 54 89q19 26 28 40q-51 9 -51 36
q0 21 41 64q19 20 35.5 25.5t59.5 6.5q92 168 175 312z" />
    <glyph glyph-name="B" unicode="B" horiz-adv-x="656" 
d="M338 562l-63 -214q12 -2 13 -2q38 0 93.5 51.5t55.5 103.5q0 67 -70 67q-17 0 -29 -6zM266 311q-43 -136 -65.5 -189t-61.5 -91q92 -29 134 -29q55 0 92 36q30 28 48 67.5t18 75.5q0 82 -105 101q-28 5 -39 10.5t-21 18.5zM53 247l56 175q15 46 40 93q-2 -1 -5 -2t-6 -3
q-34 -15 -48 -15q-20 0 -20 15q0 16 15.5 46.5t31.5 45.5q35 33 108 52t164 19q110 0 174 -37t64 -101q0 -86 -77 -144q-51 -38 -99 -48q171 -26 171 -143q0 -36 -18.5 -75.5t-49.5 -70.5q-69 -68 -174 -119.5t-175 -51.5q-61 0 -106 19t-45 44q0 27 40 63q-16 -5 -27 -5
q-28 0 -44 16t-16 42q0 17 14.5 75t31.5 110z" />
    <glyph glyph-name="C" unicode="C" horiz-adv-x="615" 
d="M390 353q46 120 46 210q0 25 -11 25q-13 0 -43.5 -32.5t-64.5 -83.5t-59.5 -127.5t-25.5 -150.5q0 -49 10.5 -66.5t38.5 -17.5q34 0 94 27t95.5 48.5t54.5 34.5q42 27 53 27q15 0 15 -17q0 -20 -20 -62.5t-38 -57.5q-49 -43 -141.5 -79.5t-151.5 -36.5q-91 0 -153.5 62.5
t-62.5 152.5q0 105 89 236q68 101 173.5 163t176.5 62q64 0 100 -33.5t36 -92.5q0 -76 -42.5 -153t-99 -123t-99.5 -46q-24 0 -24 23q0 10 13 30q22 32 41 78z" />
    <glyph glyph-name="D" unicode="D" horiz-adv-x="680" 
d="M354 563l-98 -372q-15 -55 -22 -72.5t-28 -42.5q77 -2 119 8.5t83 51.5q84 84 84 215q0 90 -38.5 149.5t-99.5 62.5zM24 77l116 392q11 37 19.5 53.5t27.5 30.5q-18 1 -65 -15q-48 -18 -68 -18q-17 0 -17 15q0 31 23.5 65t52.5 46q90 35 273 35q138 0 213 -65t75 -186
q0 -54 -14 -110t-47.5 -114t-83 -103.5t-128 -74t-174.5 -28.5q-66 0 -121.5 10.5t-72.5 26.5q-11 9 -11 26q0 4 2 14z" />
    <glyph glyph-name="E" unicode="E" horiz-adv-x="615" 
d="M424 213h-178q-3 -47 19 -76.5t47 -29.5q58 0 183 73l17 10q7 4 24 14q27 19 36 19t9 -16q0 -27 -14 -63.5t-28 -50.5q-35 -31 -129.5 -67.5t-146.5 -36.5q-103 0 -171 59t-68 148q0 72 44 162t114 162q63 65 137.5 105t131.5 40q61 0 104 -34.5t43 -83.5
q0 -46 -24 -83.5t-58 -57t-65 -30t-52 -10.5q-29 0 -29 14q0 9 16 25q28 29 46 71t22.5 66.5t4.5 35.5q0 18 -10 18q-12 0 -39.5 -19.5t-59.5 -51.5t-59.5 -81t-35.5 -99h261q43 0 43 -22q0 -20 -45.5 -65t-89.5 -45z" />
    <glyph glyph-name="F" unicode="F" horiz-adv-x="500" 
d="M160 483l11 28q-56 2 -77 11t-21 33q0 23 31.5 59t56.5 49q13 6 39 6q18 0 104.5 -5t87.5 -5q20 0 29 -0.5t23 -3.5t20 -9t11 -17t5 -27q0 -21 -6.5 -35.5t-15 -22t-29.5 -13t-35 -7t-46 -4.5l-53 -175q7 0 52.5 2t53.5 2q37 0 51 -7.5t14 -27.5q0 -15 -14.5 -43
t-30.5 -44q-10 -9 -26 -11t-63 -2q-19 0 -75 -2q-22 -75 -40.5 -114t-45.5 -67q-36 -39 -78 -39q-30 0 -51.5 16.5t-21.5 40.5q0 28 46 171t94 263z" />
    <glyph glyph-name="G" unicode="G" horiz-adv-x="625" 
d="M363 84q-95 -89 -177 -89q-76 0 -119 54t-43 149q0 104 70.5 214t178 182t209.5 72q123 0 123 -108q0 -66 -49.5 -117.5t-113.5 -51.5q-16 0 -16 12q0 4 6 16q27 55 27 122q0 41 -10 41q-22 0 -63.5 -32.5t-68.5 -70.5q-38 -55 -62.5 -128.5t-24.5 -132.5q0 -38 16.5 -62
t41.5 -24q44 0 101 112q22 44 40 55q29 19 76 34.5t72 15.5q30 0 30 -30q0 -41 -60 -212.5t-123 -239.5q-22 -23 -63.5 -38t-85.5 -15q-56 0 -108 26.5t-52 54.5q0 22 43 53t58 31q12 0 36 -27q27 -33 59 -54q17 41 33 98t19 90z" />
    <glyph glyph-name="H" unicode="H" horiz-adv-x="750" 
d="M258 220l-9 -31q-42 -134 -52 -151q-27 -45 -90 -45q-37 0 -58.5 15t-21.5 41q0 45 42 154q-39 6 -39 32q0 28 25 62t52 43q4 12 28 88q46 146 75 196q12 17 20 26q25 24 65 24q37 0 59.5 -18.5t22.5 -48.5q0 -26 -79 -260l180 4l9 31q65 218 107 262q26 28 70 28
q76 0 76 -66q0 -62 -66 -226q-9 -23 -12 -30q65 2 65 -34q0 -10 -13 -31q-19 -28 -35.5 -42.5t-26.5 -17.5t-32 -8l-2 -7q-49 -133 -63 -156q-16 -23 -56 -42t-67 -19q-49 0 -49 44q0 37 37 145q8 22 12 36z" />
    <glyph glyph-name="I" unicode="I" horiz-adv-x="580" 
d="M363 578q-45 0 -140 -31q-69 -23 -93 -23q-16 0 -26.5 9.5t-10.5 24.5q0 24 26 58t54 45q37 16 165 16q81 0 148 -10.5t83 -25.5q5 -6 5 -21q0 -54 -54.5 -210t-135.5 -304q-34 -63 -67.5 -86.5t-87.5 -23.5q-80 0 -136 43t-56 105q0 36 18.5 78t37.5 42q30 0 61 -68
q30 -64 70 -109q94 211 139 491z" />
    <glyph glyph-name="J" unicode="J" horiz-adv-x="531" 
d="M40 8q0 88 43 142t74 54q18 0 18 -34q0 -3 -10.5 -67t-10.5 -120q0 -35 8 -62q17 32 27 61q83 252 116 572q-7 -1 -44.5 -12t-73 -19.5t-47.5 -8.5q-27 0 -42.5 10.5t-15.5 28.5q0 29 23 64t51 46q46 18 153 18q216 0 216 -52q0 -26 -23.5 -130t-78 -267t-120.5 -283
q-65 -119 -147 -119q-41 0 -78.5 58t-37.5 120z" />
    <glyph glyph-name="K" unicode="K" horiz-adv-x="688" 
d="M320 420l99 107q144 138 225 138q36 0 36 -27q0 -24 -10.5 -45.5t-36 -42.5t-45 -34t-58.5 -37q-62 -37 -100 -69q10 -61 20.5 -93.5t33.5 -76.5q62 -121 144 -158q16 -8 16 -14q0 -19 -42 -47.5t-94 -28.5q-60 0 -107.5 32t-72.5 88q-33 75 -41 190q-20 -27 -29 -44.5
t-28 -66.5q-41 -108 -83 -143q-22 -19 -50 -32.5t-45 -13.5q-31 0 -31 34q0 36 79 295t117 303q16 18 47 29.5t63 11.5q30 0 43 -8t13 -27q0 -25 -52 -168q-4 -12 -11.5 -32t-11.5 -34z" />
    <glyph glyph-name="L" unicode="L" horiz-adv-x="385" 
d="M298 419l-16 -39q-56 -133 -99 -276q50 4 109 17q39 8 53 8q16 0 16 -13q0 -16 -18.5 -45t-41.5 -51q-16 -15 -47.5 -20.5t-99.5 -5.5q-87 0 -114 9.5t-27 48.5q0 58 63 284t97 283q31 52 135 52q32 0 46 -9t14 -30q0 -45 -70 -213z" />
    <glyph glyph-name="M" unicode="M" horiz-adv-x="1083" 
d="M549 254l10 22q122 271 168 338q35 53 138 53q28 0 35.5 -5t7.5 -22q0 -13 -1 -28q-3 -66 -3 -125q0 -280 101 -376q15 -15 15 -24q0 -19 -37 -51t-75 -32q-62 0 -112 52q-38 39 -53 91.5t-19 157.5q-1 43 -5 86q-53 -100 -116 -226q-58 -119 -73 -139q-19 -26 -46 -26
q-20 0 -45 26t-43 66q-50 111 -68 343q-33 -67 -64 -137q-74 -162 -107 -208q-9 -14 -26 -32q-63 -58 -127 -58q-30 0 -30 21q0 8 13 22q12 14 32 45l28 44q27 40 80 140l23 44q140 264 140 282q0 11 -15 23q-11 10 -11 16q0 11 28 20.5t62 9.5q67 0 95 -30q34 -36 63 -232
q15 -93 20 -115t17 -36z" />
    <glyph glyph-name="N" unicode="N" horiz-adv-x="802" 
d="M310 428l-60 -186l-5 -14q-5 -14 -12 -34.5t-15.5 -42.5t-17.5 -42.5t-15 -30.5q-24 -39 -64 -60.5t-77 -21.5q-25 0 -25 20q0 15 22 52q38 66 72 155l34 92l46 118q25 64 43 101q14 26 14 37q0 14 -23 31q-15 10 -15 18q0 13 55.5 30.5t87.5 17.5q40 0 62 -22
q24 -26 60 -155q32 -119 62 -173q5 -10 18 -30q17 54 38 134q32 131 59 177q21 36 53.5 50t55.5 14q14 0 19.5 -7.5t5.5 -26.5q0 -47 -109 -343l-7 -18q-67 -186 -97 -234q-21 -34 -45 -34q-37 0 -81 80q-52 95 -81 168t-58 180z" />
    <glyph glyph-name="O" unicode="O" horiz-adv-x="635" 
d="M417 486q0 18 22 40q64 60 108 60q77 0 77 -169q0 -176 -102.5 -299.5t-247.5 -123.5q-26 0 -55.5 5t-65 20t-63.5 38.5t-47 64t-19 92.5q0 107 76.5 226.5t180.5 175.5q102 55 189 55q56 0 56 -18q0 -7 -12 -21q-20 -19 -36.5 -28t-52.5 -19q-37 -11 -55.5 -21
t-46.5 -34q-108 -106 -108 -254q0 -193 106 -193q56 0 107.5 72t51.5 151q0 66 -46 140q-17 28 -17 40z" />
    <glyph glyph-name="P" unicode="P" horiz-adv-x="594" 
d="M184 557l6 17q-24 0 -53 -11q-17 -8 -25 -8t-13.5 6.5t-5.5 16.5q0 19 15.5 39t37.5 28q65 27 167 27q148 0 220 -72q50 -50 50 -122q0 -50 -28.5 -112t-70.5 -103q-33 -31 -81 -52t-88 -21q-18 0 -30.5 6t-12.5 15q0 24 48 55q44 27 67.5 63t23.5 99q0 75 -58 118
l-67 -217l-12 -38q-9 -24 -21 -77q-23 -93 -45 -131q-24 -43 -71.5 -63t-73.5 -20q-17 0 -27 10.5t-10 27.5q0 33 51 197l18 57z" />
    <glyph glyph-name="Q" unicode="Q" horiz-adv-x="677" 
d="M28 220q0 83 49 188.5t139 165.5q64 43 140.5 67.5t144.5 24.5q55 0 55 -26q0 -16 -15 -27.5t-28.5 -16t-36.5 -10.5q-127 -32 -179 -101q-32 -44 -52.5 -103.5t-20.5 -110.5q0 -70 36 -117.5t89 -47.5q31 0 61 19q-26 40 -40.5 55t-45.5 30q-31 13 -31 30q0 13 20 23
t47 10q66 0 133 -64q19 47 19 92q0 84 -52 151q-20 25 -20 39q0 32 44 60t76 28q45 0 70.5 -41t25.5 -113q0 -60 -20 -119.5t-37 -87t-44 -66.5q20 -19 42.5 -29.5t68.5 -20.5q-2 -25 -14.5 -56t-25.5 -43q-12 -10 -32 -10q-37 0 -67.5 16t-65.5 53q-94 -68 -188 -68
q-108 0 -176.5 63t-68.5 163z" />
    <glyph glyph-name="R" unicode="R" horiz-adv-x="625" 
d="M165 517l15 37q-3 0 -16.5 -2t-25.5 -3t-16 -1q-14 0 -19 5t-5 19q0 10 6 24t13 21q17 16 73 26.5t126 10.5q114 0 194 -56.5t80 -136.5q0 -92 -69 -150q-38 -31 -96 -49q29 -49 65 -73t111 -55q-33 -142 -114 -142q-25 0 -58.5 17.5t-54.5 40.5q-42 46 -72.5 114.5
t-30.5 93.5q0 11 5.5 16.5t21.5 10.5q38 14 65 40t38.5 54.5t16 49.5t4.5 38q0 44 -20 68t-64 34q-46 -168 -83 -288l-11 -41q-45 -158 -75 -190q-19 -18 -54 -34t-57 -16q-40 0 -40 45q0 42 43.5 181.5t103.5 290.5z" />
    <glyph glyph-name="S" unicode="S" horiz-adv-x="510" 
d="M157 313q-41 41 -58.5 74.5t-17.5 71.5q0 87 75 151t176 64q74 0 115 -31.5t41 -89.5q0 -50 -43.5 -98t-69.5 -48q-12 0 -12 19q0 4 2 28t2 28q0 39 -15.5 75t-32.5 36q-12 0 -27 -25.5t-15 -53.5q0 -34 15 -59.5t56 -62.5q59 -53 82 -93t23 -87q0 -88 -64 -157.5
t-146 -69.5q-87 0 -158 57.5t-71 100.5q0 30 43 58t72 28q17 0 26.5 -13t18.5 -48q26 -95 70 -95q19 0 30.5 15.5t11.5 41.5q0 40 -30 85q-14 22 -65 67q-13 11 -34 31z" />
    <glyph glyph-name="T" unicode="T" horiz-adv-x="469" 
d="M341 317l-5 -20q-21 -86 -29 -118t-18 -65t-20 -49q-13 -23 -56 -46t-70 -23q-24 0 -41 18t-17 43q0 42 37.5 166.5t113.5 291.5q-79 -9 -124 -9q-60 0 -60 42q0 27 39 68q28 29 49.5 39t53.5 10q37 0 140 -7l29 -1q87 -6 106 -17q17 -11 17 -33q0 -35 -21 -56
q-9 -9 -25 -13.5t-64 -12.5q12 -12 12 -26q0 -10 -35 -132l-7 -29z" />
    <glyph glyph-name="U" unicode="U" horiz-adv-x="625" 
d="M13 134q0 85 48.5 255t92.5 248q24 40 122 40q52 0 52 -45q0 -26 -22 -76q-29 -66 -53 -149t-35 -136t-11 -66q0 -18 9 -18q19 0 96 112t121 194q33 61 49 73q27 19 60 19q46 0 46 -41q0 -8 -3 -34q-13 -98 -13 -197q0 -105 23 -206q9 -41 9 -60q0 -23 -49 -37
q-30 -10 -51 -10q-61 0 -95 77q-23 51 -28 153q-71 -121 -119 -169q-65 -65 -122 -65q-61 0 -94 36.5t-33 101.5z" />
    <glyph glyph-name="V" unicode="V" horiz-adv-x="544" 
d="M478 590q26 25 53.5 44.5t36.5 19.5q15 0 15 -29q0 -68 -28 -150q-52 -150 -125 -279q-41 -72 -72.5 -113t-45 -51t-35.5 -19q-42 -17 -80 -17q-15 0 -23.5 3t-20 18.5t-21.5 46.5q-55 198 -55 383q0 136 29 165q17 16 61.5 33.5t68.5 17.5q20 0 28 -9t8 -31
q0 -18 -4 -81q-8 -121 -8 -190q0 -152 19 -220q95 129 138 326q11 53 22.5 78t38.5 54z" />
    <glyph glyph-name="W" unicode="W" horiz-adv-x="813" 
d="M256 646q0 -6 -2.5 -19.5t-8 -46t-10.5 -75.5q-14 -113 -16 -301q71 85 140 239q73 161 103 189q15 14 50.5 24t64.5 10q19 0 31.5 -9t12.5 -22q0 -10 -14 -50q-57 -169 -57 -317q0 -140 54 -140q32 0 59.5 83.5t27.5 182.5q0 6 -2.5 45.5t-2.5 47.5q0 47 42 91.5
t60 44.5q34 0 34 -127q0 -91 -19 -171.5t-50 -137.5t-64.5 -96.5t-68.5 -63.5q-41 -27 -82 -27q-33 0 -59.5 10.5t-42.5 29t-28 42.5t-17 50.5t-8.5 54.5t-2.5 53.5t0 47.5q-83 -152 -139 -214q-62 -69 -113 -69q-17 0 -27 12q-25 26 -40 138t-15 269q0 128 19 171
q16 37 76 57t85 20q30 0 30 -26z" />
    <glyph glyph-name="X" unicode="X" horiz-adv-x="719" 
d="M206 435l-7 17q-64 145 -80 162l-8 5q-8 5 -14 9.5t-6 7.5q0 12 44 23t76 11q22 0 43 -7.5t39 -25t32 -32t29.5 -44.5t23.5 -44.5t21 -49t16 -42.5t14 -40q36 43 77 110q42 66 70 97q21 19 52 31.5t56 12.5q23 0 23 -20q0 -13 -14.5 -39.5t-51.5 -76.5t-68 -90t-94 -120
q24 -55 47 -88q55 -83 119 -121q11 -8 11 -12q0 -13 -48 -41t-89 -28q-63 0 -114 48q-31 30 -58 85l-30 -32q-90 -94 -163 -154t-98 -60q-13 0 -22.5 14.5t-9.5 35.5q0 28 10 56t26 43q8 9 49 37q53 35 93 68t56.5 49.5t40.5 43.5l-78 167z" />
    <glyph glyph-name="Y" unicode="Y" horiz-adv-x="688" 
d="M372 160q68 140 108 249q23 65 40 100q29 63 82.5 102t81.5 39q19 0 19 -15q0 -30 -98.5 -231t-162.5 -304q-54 -87 -103.5 -143.5t-77 -75t-61.5 -33.5q-55 -22 -98 -22q-55 0 -55 35q0 18 18 54.5t36 55.5q11 11 43 11q66 0 133 44q-73 125 -111 229q-57 161 -57 290
q0 34 7.5 51.5t27.5 30.5q29 18 64 31t57 13q19 0 26 -14t8 -57q5 -109 24 -232t49 -208z" />
    <glyph glyph-name="Z" unicode="Z" horiz-adv-x="625" 
d="M206 309l42 47q118 129 154 193q-33 -3 -95 -17q-83 -20 -140 -23q-51 2 -51 39q0 15 17.5 44.5t41.5 54.5q19 17 54 18q26 0 59 1l68 2l53 2q12 0 32 0.5t38 0.5q32 0 48.5 -0.5t39.5 -4t33.5 -11.5t10.5 -22t-30 -50q-25 -30 -101 -135l-26 -37q-105 -150 -153 -237
q114 3 213 26q28 6 35 6q24 0 24 -24t-18 -60t-41 -57q-31 -30 -98 -47.5t-149 -17.5q-110 0 -173.5 22t-63.5 60q0 22 28 59.5t105 120.5q30 34 43 47z" />
    <glyph glyph-name="bracketleft" unicode="[" horiz-adv-x="385" 
d="M143 100l32 2q48 2 74 -2t32.5 -10.5t6.5 -18.5q0 -14 -7 -32.5t-14 -25.5q-17 -16 -92 -16q-107 0 -129.5 7t-22.5 41q0 27 14 126q14 102 19 165l3 44q0 1 1.5 34.5t4.5 66.5t8 73t14.5 69t22.5 39q21 14 94 14q96 0 135 -14t39 -48q0 -56 -36 -56q-2 0 -19 3
q-45 7 -91 4l-4 -20l-26 -154l-8 -41q-40 -203 -51 -250z" />
    <glyph glyph-name="backslash" unicode="\" horiz-adv-x="469" 
d="M254 483l163 -403q37 -98 37 -112t-10 -23t-26 -9q-28 0 -50 24q-17 18 -71 111t-102 188l-108 215q-25 49 -43.5 100t-18.5 70q0 28 15.5 45.5t41.5 17.5q42 0 83.5 -54t88.5 -170z" />
    <glyph glyph-name="bracketright" unicode="]" horiz-adv-x="406" 
d="M199 -2l-52 -2q-72 -2 -98.5 6t-26.5 33q0 13 7.5 33.5t14.5 26.5q7 7 65 7q28 0 73 3q10 39 19 117q22 176 30 339q-48 0 -86 -6q-22 -2 -31 -2q-15 0 -21 4t-6 14q0 17 10 42.5t20 35.5q13 13 57 21t100 8q33 0 66 -7t43 -17q12 -10 12 -31q0 -26 -6 -56l-46 -260
q-50 -270 -74 -296q-12 -12 -70 -13z" />
    <glyph glyph-name="asciicircum" unicode="^" horiz-adv-x="469" 
d="M234 629l-117 -292h-91l173 391h71l173 -391h-89z" />
    <glyph glyph-name="underscore" unicode="_" horiz-adv-x="500" 
d="M500 -125h-500v50h500v-50z" />
    <glyph glyph-name="grave" unicode="`" 
d="M225 723q10 0 16.5 -7t17.5 -27q25 -51 72 -90q19 -15 19 -27q0 -22 -36 -22q-39 0 -74 14.5t-56 33.5t-33 36.5t-12 25.5q0 9 35.5 36t50.5 27z" />
    <glyph glyph-name="a" unicode="a" horiz-adv-x="552" 
d="M354 241l12 13q-42 -13 -63 -13q-18 0 -18 10q0 6 8 18q26 40 26 78q0 20 -7.5 38t-13.5 18q-11 0 -40.5 -33.5t-56.5 -85t-27 -91.5q0 -27 11 -44.5t28 -17.5q31 0 141 110zM335 142q-137 -155 -213 -155q-55 0 -91 36t-36 92q0 70 51 153t134 142.5t164 59.5
q62 0 102.5 -25.5t40.5 -64.5q0 -30 -20 -61q25 0 32 -5.5t8 -26.5q0 -8 -2.5 -55t-2.5 -56q0 -80 18 -127q-56 -56 -110 -56q-27 0 -44.5 15.5t-23 43.5t-7 46t-0.5 44z" />
    <glyph glyph-name="b" unicode="b" horiz-adv-x="469" 
d="M444 342q0 -139 -82.5 -242.5t-194.5 -103.5q-70 0 -112.5 51t-42.5 135q0 87 45.5 208.5t123.5 217.5t155 96q44 0 71.5 -27.5t27.5 -72.5q0 -51 -52 -99.5t-108 -49.5q-16 0 -16 9q0 7 13 25q24 30 40 68t16 66q0 26 -8 26q-10 0 -30.5 -33t-35.5 -73
q-79 -207 -79 -342q0 -48 15 -80t38 -32q28 0 46 32t22 87q-8 -3 -17 -3q-17 0 -28 12.5t-11 31.5q0 50 42 131t93 82q32 0 50.5 -32t18.5 -88z" />
    <glyph glyph-name="c" unicode="c" horiz-adv-x="385" 
d="M270 471q38 -2 60 -22t22 -53q0 -45 -36 -86t-76 -41q-15 0 -15 11q0 4 7 17q18 33 18 74q0 21 -5 21q-20 0 -48 -77.5t-28 -133.5q0 -33 10.5 -52t27.5 -19q16 0 45 18.5t52 43.5q13 13 18 13q12 0 12 -14q0 -54 -37.5 -97.5t-81.5 -63.5t-77 -20q-58 0 -96.5 37
t-38.5 93q0 83 54.5 176t134.5 149q40 26 78 26z" />
    <glyph glyph-name="d" unicode="d" horiz-adv-x="573" 
d="M331 216v28q-25 -22 -37 -22q-7 0 -7 6q0 2 3 13q10 29 10 57q0 30 -11 66.5t-24 36.5q-18 0 -45.5 -71.5t-27.5 -129.5t34 -58q19 0 48.5 21t56.5 53zM347 447l4 20q40 181 78 219q21 22 74 22q31 0 53 -11q-69 -209 -69 -396q0 -109 39 -246q-82 -58 -131 -58
q-12 0 -21 4.5t-15.5 15.5t-10.5 20.5t-7 30t-4.5 33t-4.5 38.5q-65 -67 -125.5 -107.5t-96.5 -40.5q-41 0 -67 34t-26 87q0 103 76 217q46 70 104 106t95 36q20 0 55 -24z" />
    <glyph glyph-name="e" unicode="e" horiz-adv-x="427" 
d="M269 372q0 27 -11 27q-18 0 -53.5 -83t-35.5 -140q0 -16 1 -29q23 15 35 30q26 33 42 79t19 72t3 44zM397 361q0 -79 -74.5 -157t-129.5 -78q-11 0 -21 6q3 -28 38 -30q35 0 95 43q34 25 46 25q14 0 27 -8t13 -16q0 -12 -40 -47.5t-103.5 -69t-114.5 -33.5
q-61 0 -97 34.5t-36 93.5q0 43 19.5 99.5t51.5 105.5q44 67 108 104t120 37q46 0 72 -29t26 -80z" />
    <glyph glyph-name="f" unicode="f" horiz-adv-x="367" 
d="M178 105l-2 -26q-15 -204 -41 -233q-19 -21 -58 -21q-26 0 -42.5 5.5t-22.5 16.5t-7.5 18.5t-1.5 20.5q0 180 41.5 364.5t107.5 303.5t131 119q44 0 44 -58q0 -65 -18 -129t-37 -64q-12 0 -12 57q0 71 -9 71q-3 0 -8 -26q-17 -81 -45 -285q6 -1 35.5 0.5t31.5 1.5
q58 0 58 -30q0 -16 -11 -38t-26 -36q-18 -18 -35 -22.5t-73 -9.5z" />
    <glyph glyph-name="g" unicode="g" horiz-adv-x="550" 
d="M346 389q0 10 -9 10q-20 0 -55.5 -36.5t-66 -95t-30.5 -109.5q0 -28 14 -28t69 46q26 22 82 62q-21 -2 -34 -2q-25 0 -25 9q0 3 7 12q18 20 33 57.5t15 74.5zM-6 100q0 80 57.5 165t145.5 140.5t171 55.5q125 0 125 -84q0 -35 -28 -87q39 -3 39 -47q0 -92 -54 -233
q-23 -62 -62.5 -108.5t-80.5 -70t-73.5 -34.5t-55.5 -11q-35 0 -61.5 27t-26.5 62q0 36 25 70t58 54t59 32.5t33 12.5q8 0 8 -7q0 -3 -6 -13q-15 -27 -26 -65.5t-11 -66.5q0 -32 10 -32q9 0 26.5 36.5t35 103t22.5 134.5l-13 -10q-90 -71 -140 -100.5t-89 -29.5
q-40 0 -64 29t-24 77z" />
    <glyph glyph-name="h" unicode="h" horiz-adv-x="500" 
d="M453 328q0 -12 -7.5 -68.5t-7.5 -78.5q0 -27 14.5 -78.5t14.5 -55.5q0 -11 -40.5 -31t-70.5 -20q-36 0 -58 34.5t-22 91.5q0 22 5 54q-59 -57 -96 -96q-87 -84 -135 -84q-21 0 -34.5 28.5t-13.5 74.5q0 100 55.5 238t109.5 222q72 111 160 111q53 0 86 -31.5t33 -83.5
q0 -38 -21 -77.5t-50 -67t-57.5 -45t-44.5 -17.5q-5 0 -9 3.5t-4 8.5q0 9 13 32q25 47 41.5 104t16.5 94q0 26 -5 26q-10 0 -34 -42t-53.5 -136.5t-43.5 -208.5q149 152 217 152q41 0 41 -53z" />
    <glyph glyph-name="i" unicode="i" horiz-adv-x="250" 
d="M87 -5q-6 0 -12.5 2t-18 9.5t-20 19.5t-15 35.5t-6.5 54.5q0 82 30 183t68 146q15 19 41 19q29 0 46 -25.5t17 -68.5q0 -136 -67 -318q-11 -29 -25 -43t-38 -14zM145 486q-45 2 -45 55q0 28 13.5 63t30.5 52q16 17 41 17q47 0 47 -53q0 -51 -26 -92.5t-61 -41.5z" />
    <glyph glyph-name="j" unicode="j" horiz-adv-x="292" 
d="M169 486q-20 1 -32 15.5t-12 37.5t7.5 51.5t27.5 55t48 26.5q25 0 35.5 -12t10.5 -41q0 -53 -25 -93t-60 -40zM133 438q28 26 52 26q26 0 42.5 -18.5t16.5 -47.5t-5.5 -65.5t-11.5 -63.5t-20 -73.5t-20.5 -64.5t-24.5 -69t-20 -58q-17 -48 -45 -102t-49 -54t-36 37
t-15 88q0 55 10 98t23 43q3 0 17 -9q16 160 30.5 223t55.5 110z" />
    <glyph glyph-name="k" unicode="k" horiz-adv-x="500" 
d="M17 112q0 107 49.5 239.5t125.5 230.5q70 90 137 90q51 0 82.5 -34.5t31.5 -89.5q0 -70 -49 -131.5t-104 -61.5q-17 0 -17 13q0 5 9 23q43 84 43 193q0 27 -7 27q-8 0 -28 -35.5t-47.5 -129t-43.5 -216.5q36 46 69 72q66 51 123 51q29 0 48 -17t19 -43q0 -48 -22.5 -98
t-42 -74t-48.5 -56q34 -61 88 -115q23 -23 41 -38q-70 -90 -104 -90q-55 0 -109 75t-54 151q0 17 3.5 23t17.5 14q81 52 81 96q0 24 -20 24q-24 0 -59 -42t-64 -107q-16 -36 -27.5 -48t-37.5 -12q-38 1 -61 32.5t-23 83.5z" />
    <glyph glyph-name="l" unicode="l" horiz-adv-x="458" 
d="M447 544q0 -68 -23.5 -132.5t-57 -106.5t-67 -67.5t-56.5 -25.5q-17 0 -17 14q0 5 13 28q28 47 50 108q46 131 46 208q0 9 -5 9q-8 0 -27.5 -34.5t-32.5 -71.5q-43 -123 -57 -180.5t-14 -112.5q0 -61 29 -61q27 0 61 24t60 62q21 29 33 29q15 0 15 -24q0 -80 -70 -147
t-153 -67q-66 0 -107 42t-41 109q0 112 86 275.5t179 227.5q30 21 63 21q41 0 67 -36t26 -91z" />
    <glyph glyph-name="m" unicode="m" horiz-adv-x="771" 
d="M537 177l-133 -137q-27 -27 -42.5 -36t-34.5 -9q-30 0 -50 22t-20 55q0 37 30 114q3 7 6.5 15.5t5.5 15.5q-47 -47 -95 -105q-52 -63 -82 -88t-52 -25q-32 0 -50 25t-18 68q0 55 47 175q17 43 26.5 67t24 52.5t27 42.5t29 23.5t35.5 9.5q27 0 44 -12.5t17 -32.5
q0 -36 -28 -112q-12 -30 -22 -65q21 21 60 69q68 83 109 120.5t77 37.5q26 0 45.5 -24.5t19.5 -56.5q0 -24 -29 -107l-16 -48q65 59 105 102q36 40 55.5 54t38.5 14q62 0 62 -82q0 -7 -10 -89t-10 -132q0 -40 13 -101q8 -35 8 -42q0 -17 -23 -29.5t-50 -12.5q-41 0 -75 36
q-23 23 -31.5 52t-8.5 83q0 25 6 105z" />
    <glyph glyph-name="n" unicode="n" horiz-adv-x="510" 
d="M207 258l31 34q62 69 95.5 94t64.5 25q34 0 48.5 -19t14.5 -64q0 -9 -5 -62t-5 -87q0 -40 7 -82q0 -2 4 -15t6.5 -25t2.5 -18q0 -14 -32.5 -29.5t-55.5 -15.5q-43 0 -70.5 41.5t-27.5 106.5q0 28 6 69q-55 -55 -107.5 -121.5t-72.5 -88.5q-19 -18 -41 -18
q-31 0 -50.5 23.5t-19.5 60.5q0 67 38 196.5t85 178.5q22 22 53 22q51 0 51 -66q0 -53 -20 -140z" />
    <glyph glyph-name="o" unicode="o" horiz-adv-x="542" 
d="M331 483q74 0 74 -17q0 -19 -34 -21q-79 -5 -135 -77.5t-56 -169.5q0 -53 24.5 -85.5t65.5 -32.5q37 0 65 38t28 89q0 88 -68 139q-14 11 -14 16q0 13 44 35t73 22q45 0 77 -44.5t32 -107.5q0 -51 -20 -101.5t-52 -82.5q-41 -40 -99 -65t-110 -25q-92 0 -155.5 44
t-63.5 131q0 75 47.5 149t123 120t153.5 46z" />
    <glyph glyph-name="p" unicode="p" horiz-adv-x="552" 
d="M189 112q16 -39 52 -39q41 0 71 52t30 123q0 35 -5 62t-12 27t-32.5 -35t-56 -89.5t-47.5 -100.5zM225 320l17 29q40 68 69 96.5t72 28.5q57 0 91 -48.5t34 -130.5q0 -117 -73.5 -211t-165.5 -94q-67 0 -102 65q-35 -113 -54 -164t-35 -64q-11 -10 -25 -10q-59 0 -59 104
q0 82 25 207t72 230.5t96 105.5q47 0 47 -47q0 -8 -4.5 -49.5t-4.5 -47.5z" />
    <glyph glyph-name="q" unicode="q" horiz-adv-x="548" 
d="M348 242l28 28q-53 -3 -53 6q0 5 10 21q12 21 23 49.5t11 38.5q0 11 -9 11q-5 0 -17 -7q-56 -39 -91.5 -94.5t-45.5 -96t-10 -74.5q0 -22 8 -22q15 0 77 69q29 32 69 71zM299 87l-21 -16q-52 -43 -85.5 -59t-68.5 -16q-49 0 -79 31.5t-30 85.5q0 76 55.5 167t134.5 144
q77 51 169 51q70 0 99.5 -17t29.5 -58q0 -67 -63 -111q34 -21 41.5 -28.5t7.5 -25.5q0 -54 -45 -204t-88 -190q-11 -10 -41 -20.5t-50 -10.5q-15 0 -24 10t-9 26q0 43 51 192q11 31 16 49z" />
    <glyph glyph-name="r" unicode="r" horiz-adv-x="324" 
d="M45 281l3 13q10 33 14 46.5t13 40t16.5 38t18.5 26.5t24.5 20.5t29.5 5.5q35 0 43 -42q7 7 12 14q24 28 41 28q42 0 42 -83q0 -67 -20.5 -125.5t-43.5 -58.5q-17 0 -17 61q0 20 -2.5 39t-5.5 29.5t-6 10.5t-7 -14.5t-7.5 -44t-5.5 -66.5q-2 -47 -5 -71l-1 -10
q-7 -61 -12 -76t-24 -33q-38 -33 -72 -33q-30 0 -43.5 21.5t-13.5 69.5q0 95 29 194z" />
    <glyph glyph-name="s" unicode="s" horiz-adv-x="448" 
d="M224 65q0 26 -19 38t-63 26q-20 6 -32 10t-31.5 13t-30.5 19t-20 26.5t-9 35.5q0 86 87.5 163t185.5 77q48 0 83 -31.5t35 -74.5t-37 -85t-75 -42q-14 0 -24 5.5t-10 13.5q0 7 4 20q11 42 11 72q0 21 -6 39t-15 18q-7 0 -23 -15t-31 -46t-15 -65q0 -25 18 -37.5t71 -24.5
q74 -17 99.5 -38t25.5 -57q0 -67 -86 -139q-91 -74 -196 -74q-54 0 -85 21.5t-31 58.5q0 41 42.5 78t88.5 37q22 0 22 -10q0 -2 -7 -16q-18 -34 -18 -62q0 -40 19 -40q26 0 49 27.5t23 58.5z" />
    <glyph glyph-name="t" unicode="t" horiz-adv-x="344" 
d="M129 457q34 97 58 135q15 24 46.5 39.5t55.5 15.5q40 0 40 -34q0 -11 -15 -46q-22 -48 -37 -108q43 -7 53.5 -12t10.5 -21q0 -26 -13 -48t-35 -32q-17 -7 -52 -10q-27 -79 -27 -169q0 -77 79 -77q9 0 9 -3q0 -10 -18.5 -30.5t-54.5 -40.5t-73 -20q-52 0 -83.5 34.5
t-31.5 91.5q0 50 34 170q8 27 11 40q-36 0 -36 34q0 31 23 57.5t56 33.5z" />
    <glyph glyph-name="u" unicode="u" horiz-adv-x="531" 
d="M300 282l16 17q93 92 132 92t39 -68q0 -11 -3 -51q-6 -69 -6 -118q0 -27 1 -39q0 -5 2 -24.5t4 -36t2 -17.5q0 -15 -26.5 -26t-61.5 -11q-100 0 -100 109q0 17 3 44l-42 -32q-158 -125 -200 -125q-27 0 -43 22t-16 57q0 121 65 290q22 57 50.5 83.5t69.5 26.5
q31 0 49.5 -19t18.5 -50q0 -38 -30 -103l-7 -14q-41 -88 -41 -108q0 -11 8 -11q12 0 55 48q17 20 43 46z" />
    <glyph glyph-name="v" unicode="v" horiz-adv-x="431" 
d="M318 392l10 21l7 15q13 26 21.5 34t21.5 8q40 0 40 -90q0 -45 -17 -82q-21 -43 -69.5 -112.5t-106.5 -130.5t-88 -61q-41 0 -61 52q-45 117 -45 265q0 84 17.5 126.5t59.5 42.5q48 0 73 -28q17 -18 20 -52.5t4 -192.5v-55q8 15 31.5 64.5t50 107.5t31.5 68z" />
    <glyph glyph-name="w" unicode="w" horiz-adv-x="677" 
d="M296 202l-21 -44q-47 -93 -77.5 -128.5t-64.5 -35.5q-24 2 -40 20q-35 39 -55.5 141t-20.5 167q0 75 27 108t86 33q30 0 38.5 -18.5t8.5 -84.5q0 -91 14 -192q12 24 19 39t30 73t44 109.5t25 58.5q16 27 77 27q32 0 42.5 -20t11.5 -83q0 -106 43 -286q30 72 30 229v22
q0 63 29 93q16 16 39.5 27.5t40.5 11.5q19 0 27.5 -15.5t8.5 -51.5q0 -67 -26 -175t-83 -213q-23 -42 -43.5 -58.5t-49.5 -16.5q-68 0 -114 89q-29 58 -46 174z" />
    <glyph glyph-name="x" unicode="x" horiz-adv-x="500" 
d="M337 254l116 -186q10 -17 10 -28q0 -20 -31.5 -37t-68.5 -17q-29 0 -50.5 7.5t-38.5 26.5t-27 35t-28 50q-52 -47 -71.5 -64t-42.5 -31t-41 -14q-29 0 -48 17.5t-19 44.5q0 25 13 41.5t48 43.5q57 44 97 89q-64 142 -126 183q-19 11 -19 21t19 16.5t47 6.5q58 0 97.5 -24
t87.5 -74q83 106 145 106q20 0 39 -7t19 -17q0 -33 -68 -111q-39 -46 -59 -78z" />
    <glyph glyph-name="y" unicode="y" horiz-adv-x="500" 
d="M342 335l6 21q14 50 39 74q37 39 77 39q32 0 32 -27q0 -41 -65.5 -189t-128.5 -235q-60 -83 -131.5 -136t-124.5 -53q-22 0 -22 19q0 37 27 76q20 31 107 71q-51 85 -78 150q-40 96 -40 173q0 59 15 96q11 27 38.5 41.5t60.5 14.5q32 0 43 -24.5t19 -112.5
q13 -120 37 -227q59 127 89 229z" />
    <glyph glyph-name="z" unicode="z" horiz-adv-x="427" 
d="M95 186l41 47q70 78 115 144l-23 -8q-117 -39 -170 -39q-37 0 -37 33q0 30 30.5 70.5t81.5 40.5q1 0 15.5 -0.5t27.5 -0.5q159 -6 182 -11q36 -8 36 -31q0 -31 -171 -285l-18 -26q80 -2 143 23q15 5 18 5q15 0 15 -26q0 -65 -49.5 -108.5t-124.5 -43.5q-92 0 -153.5 24
t-61.5 60q0 14 12.5 30t74.5 85z" />
    <glyph glyph-name="braceleft" unicode="{" horiz-adv-x="389" 
d="M340 -5h-25q-98 0 -140 21q-22 11 -35 24t-18.5 35.5t-6.5 39t-1 51.5q0 64 -16 89q-8 13 -18.5 21.5t-24.5 12t-23 4t-25 1.5v86q70 3 88.5 33t18.5 107q0 35 2.5 55.5t13.5 43t32 34t59 19t94 7.5h26v-85q-64 0 -82 -8.5t-18 -43.5q0 -1 -0.5 -6t-1 -15.5t-0.5 -21.5
q-2 -31 -3 -45.5t-6 -35t-14 -32t-25.5 -24.5t-41.5 -25q30 -13 48 -28t26.5 -38.5t11 -41t4.5 -54.5q0 -11 0.5 -21.5t1 -15.5t0.5 -6q0 -35 20.5 -43.5t78.5 -8.5v-85z" />
    <glyph glyph-name="bar" unicode="|" horiz-adv-x="587" 
d="M238 -250v1000h112v-1000h-112z" />
    <glyph glyph-name="braceright" unicode="}" horiz-adv-x="390" 
d="M388 380v-86q-70 -3 -88.5 -33t-18.5 -107q0 -35 -2.5 -55.5t-13.5 -43t-32 -34t-59 -19t-94 -7.5h-26v85q58 0 79 8.5t21 43.5q0 1 0.5 6t1 15.5t0.5 21.5q2 37 4 54t10.5 41t26.5 39t48 28q-25 12 -41 25t-25 24t-14 31.5t-6 35t-3 46.5q-2 26 -2 43q0 34 -18 43t-82 9
v85h26q97 0 140 -21q22 -11 35 -24t18.5 -35.5t6.5 -39t1 -51.5q0 -64 15 -89q10 -17 27.5 -26t30 -10.5t34.5 -2.5z" />
    <glyph glyph-name="asciitilde" unicode="~" horiz-adv-x="667" 
d="M97 242h-34q4 94 45 138q37 40 94 40q58 0 187 -57q68 -30 97 -30q75 0 84 86h34q-3 -83 -40.5 -130.5t-100.5 -47.5q-33 0 -65.5 10t-120.5 48q-67 29 -100 29q-68 0 -80 -86z" />
    <glyph glyph-name="exclamdown" unicode="&#xa1;" horiz-adv-x="365" 
d="M223 328q-42 2 -42 29q0 38 31 86q12 19 42 34.5t55 15.5q39 0 39 -39q0 -10 -5.5 -28t-18 -41.5t-39.5 -40t-62 -16.5zM251 56q-31 -96 -44.5 -127t-36.5 -46q-20 -14 -52 -23.5t-57 -9.5q-37 0 -37 24q0 23 61.5 180.5t84.5 192.5q15 24 49 43.5t52 19.5q15 0 24 -8.5
t9 -22.5q0 -15 -17 -89t-36 -134z" />
    <glyph glyph-name="cent" unicode="&#xa2;" horiz-adv-x="385" 
d="M93 -20l4 13q-45 13 -70.5 47t-25.5 81q0 97 77 209t162 138l5 20q32 127 55 127q13 0 13 -24q0 -22 -23 -122q61 -21 61 -75q0 -45 -36.5 -85.5t-76.5 -40.5q-14 0 -14 11q0 5 6 16q19 31 19 76q0 21 -5 21q-18 0 -47 -74.5t-29 -135.5q0 -35 9.5 -55t25.5 -20
q17 0 47 18.5t54 44.5q12 13 17 13q11 0 11 -21q0 -76 -84 -133q-54 -36 -104 -40q-23 -75 -46 -118q-11 -19 -22 -19q-12 0 -12 12t29 116z" />
    <glyph glyph-name="sterling" unicode="&#xa3;" horiz-adv-x="750" 
d="M123 136l32 84q-35 15 -35 33q0 15 12.5 41t24.5 38q18 17 49 15q62 144 127 211q50 52 118.5 85t125.5 33q56 0 91.5 -31t35.5 -80q0 -57 -39.5 -105.5t-83 -71t-69.5 -22.5q-24 0 -24 16q0 8 13 24q28 32 58.5 87.5t30.5 88.5q0 20 -14 20q-32 0 -83.5 -75.5
t-90.5 -180.5h157q24 0 24 -27q0 -25 -21 -51.5t-50 -38.5q-30 -13 -103 -13h-69l-40 -81q38 -9 105 -9q92 0 143.5 14t94.5 49q15 12 19 12q10 0 10 -10q0 -26 -33.5 -73.5t-90 -88.5t-109.5 -41q-44 0 -149 10t-134 12q-65 -48 -108 -48q-28 0 -44.5 15.5t-16.5 41.5
q0 42 39 75.5t97 41.5z" />
    <glyph glyph-name="currency" unicode="&#xa4;" horiz-adv-x="696" 
d="M334 455q-52 0 -86 -37t-34 -89t34 -88t86 -36q50 0 84 36t34 88t-34 89t-84 37zM55 112l98 98q-35 52 -35 119q0 68 35 121l-98 96l62 62l96 -98q52 35 121 35q71 0 119 -35l98 98l60 -62l-98 -96q35 -52 35 -121q0 -67 -35 -119l98 -98l-60 -60l-98 98
q-48 -35 -119 -35q-69 0 -121 35l-96 -98z" />
    <glyph glyph-name="yen" unicode="&#xa5;" horiz-adv-x="688" 
d="M26 122h177l-7 15q-62 127 -85 234t-23 173q0 34 7.5 52t27.5 31q28 18 64 30.5t58 12.5q19 0 26 -14t8 -57q0 -79 24 -224t49 -216q68 141 108 249q22 62 40 101q30 62 83 101t81 39q19 0 19 -15q0 -32 -92 -218t-155 -294h184q21 0 27.5 -8.5t6.5 -35.5q0 -32 -6.5 -42
t-27.5 -10h-247q-40 -57 -91 -110q-40 -40 -95.5 -65t-104.5 -25q-55 0 -55 35q0 18 18 54.5t36 55.5q11 11 43 11q66 0 133 44h-231q-24 0 -30.5 7.5t-6.5 34.5q0 34 7 44t30 10z" />
    <glyph glyph-name="brokenbar" unicode="&#xa6;" horiz-adv-x="587" 
d="M241 -175v350h104v-350h-104zM241 325v350h104v-350h-104z" />
    <glyph glyph-name="section" unicode="&#xa7;" horiz-adv-x="542" 
d="M264 342q-18 -39 -18 -64q0 -50 93 -111q32 32 32 62q0 31 -28.5 61.5t-78.5 51.5zM179 416q-34 48 -34 102q0 30 13 61.5t39 61t73 48.5t107 19q71 0 115.5 -30.5t44.5 -79.5t-33 -83.5t-78 -34.5q-29 0 -29 13q0 5 4 14q12 41 12 73q0 59 -21 59q-20 0 -50.5 -35
t-30.5 -65q0 -20 14.5 -37.5t29 -26.5t42.5 -25q49 -27 74 -49q55 -58 55 -124q0 -108 -112 -190q27 -51 27 -92q0 -18 -5.5 -40.5t-23 -53t-44 -55t-73.5 -41.5t-107 -17q-67 0 -111.5 30t-44.5 76q0 35 44 69.5t89 34.5q7 0 12 -4.5t5 -11.5q0 -6 -8 -21q-16 -33 -16 -58
q0 -17 8.5 -31.5t18.5 -14.5q22 0 53 40.5t31 73.5q0 25 -13.5 42t-59.5 57q-43 37 -61.5 55t-36 48t-17.5 62q0 85 54 147q15 18 44 34z" />
    <glyph glyph-name="dieresis" unicode="&#xa8;" 
d="M150 571q-41 0 -41 30q0 16 13 45.5t23 38.5q11 11 38.5 18.5t54.5 7.5q32 0 32 -29q0 -43 -36.5 -77t-83.5 -34zM342 550q-60 0 -60 45q0 44 27 71q19 19 73 19q46 0 46 -26q0 -15 -16 -47t-32 -49q-13 -13 -38 -13z" />
    <glyph glyph-name="copyright" unicode="&#xa9;" horiz-adv-x="738" 
d="M539 451l-58 -14q-30 75 -110 75q-59 0 -94 -42.5t-35 -113.5q0 -70 33 -110t90 -40q46 0 78.5 25t43.5 69l60 -18q-15 -61 -62.5 -97t-114.5 -36q-89 0 -141.5 56.5t-52.5 153.5q0 96 52 151.5t143 55.5q65 0 108.5 -30t59.5 -85zM0 360q0 152 108 260t260 108
q153 0 261 -108t108 -260t-108 -260.5t-261 -108.5q-152 0 -260 108.5t-108 260.5zM62 360q0 -128 89.5 -218t216.5 -90t217 90t90 218t-89.5 217.5t-217.5 89.5q-127 0 -216.5 -90t-89.5 -217z" />
    <glyph glyph-name="ordfeminine" unicode="&#xaa;" horiz-adv-x="365" 
d="M279 516l13 13q-24 -7 -39 -7q-11 0 -11 5q0 7 7 17q14 25 14 49q0 34 -14 34q-15 0 -47.5 -49.5t-32.5 -87.5q0 -17 7.5 -28.5t17.5 -11.5q20 0 85 66zM274 457q-94 -101 -140 -101q-36 0 -59 24t-23 62q0 67 73 148t155 81q39 0 66 -16.5t27 -41.5q0 -16 -14 -41h8
q11 0 15 -4t4 -16q0 -5 -1 -21.5t-2 -31t-1 -15.5q0 -53 11 -88q-33 -36 -70 -36q-17 0 -28 8t-15 25t-5 29t-1 35z" />
    <glyph glyph-name="guillemotleft" unicode="&#xab;" horiz-adv-x="323" 
d="M235 227l-21 -21q68 -62 68 -84q0 -7 -7 -13t-15 -6q-21 0 -62 47.5t-41 60.5t59 71t78 58q8 0 14 -7.5t6 -16.5t-62 -71q-1 -1 -6.5 -7t-10.5 -11zM84 209q0 -11 18 -33.5t40 -39.5q22 -16 22 -26q0 -7 -7.5 -12.5t-15.5 -5.5q-10 0 -29 11.5t-34 27.5
q-19 19 -36.5 48.5t-17.5 39.5q0 27 74.5 83.5t91.5 56.5q7 0 13 -5.5t6 -11.5q0 -16 -55 -61q-70 -58 -70 -72z" />
    <glyph glyph-name="logicalnot" unicode="&#xac;" horiz-adv-x="667" 
d="M62 399v105h544v-343h-105v238h-439z" />
    <glyph glyph-name="registered" unicode="&#xae;" horiz-adv-x="738" 
d="M0 360q0 152 108 260t261 108q152 0 260 -108t108 -260q0 -153 -108 -261t-260 -108q-153 0 -261 108t-108 261zM62 360q0 -128 90 -218t217 -90t216.5 90t89.5 218q0 127 -89.5 217t-216.5 90t-217 -90t-90 -217zM271 156h-64v396h137q74 0 107 -13q27 -11 44.5 -37.5
t17.5 -56.5q0 -45 -32 -76.5t-81 -35.5q23 -10 38 -26q30 -33 54 -74l48 -77h-78l-35 63q-39 66 -60 85.5t-58 19.5h-38v-168zM271 498v-119h78q18 0 29.5 1t29.5 6t27.5 18.5t9.5 34.5t-9 34t-27 18t-30.5 6t-34.5 1h-73z" />
    <glyph glyph-name="macron" unicode="&#xaf;" 
d="M211 682h172q24 0 33 -10.5t9 -38.5q0 -18 -24 -36t-49 -18h-170q-27 0 -36 10.5t-9 35.5q0 23 24.5 40t49.5 17z" />
    <glyph glyph-name="degree" unicode="&#xb0;" horiz-adv-x="400" 
d="M64 593q0 56 40 95.5t96 39.5t95.5 -39.5t39.5 -95.5t-39.5 -96t-95.5 -40t-96 40t-40 96zM117 593q0 -35 24.5 -59t58.5 -24t58 24.5t24 58.5t-24 58t-58 24t-58.5 -24t-24.5 -58z" />
    <glyph glyph-name="plusminus" unicode="&#xb1;" horiz-adv-x="668" 
d="M62 365v105h219v220h105v-220h220v-105h-220v-219h-105v219h-219zM62 -29v105h544v-105h-544z" />
    <glyph glyph-name="twosuperior" unicode="&#xb2;" horiz-adv-x="385" 
d="M336 385q-5 -37 -50 -82q-34 -33 -101 -33q-44 0 -80 14t-36 31q0 12 35 50q16 17 42 50q76 99 76 164q0 21 -7 38.5t-14 24.5t-11 7q-3 0 -8 -10.5t-9.5 -29t-4.5 -36.5q0 -19 4 -43q3 -14 3 -16q0 -10 -12 -10q-25 0 -46.5 26t-21.5 57q0 49 38.5 83.5t92.5 34.5
q52 0 83.5 -26t31.5 -69q0 -73 -141 -234q18 -4 42 -4q38 0 94 13z" />
    <glyph glyph-name="threesuperior" unicode="&#xb3;" horiz-adv-x="385" 
d="M181 550q-4 -2 -5 -2q-15 0 -29.5 19t-14.5 39q0 41 39.5 70t95.5 29q52 0 80.5 -20.5t28.5 -58.5q0 -52 -83 -96q88 -3 88 -71q0 -58 -73.5 -124t-154.5 -66q-46 0 -73 22.5t-27 60.5q0 39 27.5 67.5t54 38.5t42.5 10q11 0 11 -8q0 -4 -4 -8q-38 -42 -38 -91
q0 -37 18 -37q7 0 23.5 9t27.5 20q19 18 32.5 45.5t13.5 48.5q0 39 -42 47q-25 6 -25 17q0 8 17 22q51 46 51 96q0 20 -12 20q-15 0 -33.5 -25t-28.5 -57q-3 -11 -7 -17z" />
    <glyph glyph-name="acute" unicode="&#xb4;" 
d="M224 607q23 25 50 66q11 17 15 21t12 8q65 24 102 24q15 0 15 -13q0 -21 -32 -59t-84 -70.5t-98 -32.5q-21 0 -21 15q0 9 19 23q8 6 22 18z" />
    <glyph glyph-name="mu" unicode="&#xb5;" horiz-adv-x="611" 
d="M-19 -200l139 662h140l-37 -183q-2 -10 -7 -30.5t-7 -35t-2 -31.5q0 -38 22.5 -63.5t56.5 -25.5q25 0 45 11t31.5 25.5t21 39t13.5 39.5t9 39l46 215h138l-97 -462h-125l10 49q-33 -36 -55.5 -48.5t-52.5 -12.5q-59 0 -95 67l-54 -255h-140z" />
    <glyph glyph-name="paragraph" unicode="&#xb6;" horiz-adv-x="538" 
d="M276 -235h-80v510q-91 5 -144 59t-53 143q0 61 28.5 108t79.5 71q50 23 122 23h309v-84h-70v-830h-83v830h-109v-830z" />
    <glyph glyph-name="periodcentered" unicode="&#xb7;" horiz-adv-x="500" 
d="M265 418q33 0 56.5 -23.5t23.5 -56.5q0 -32 -23.5 -55.5t-56.5 -23.5q-32 0 -55.5 23.5t-23.5 55.5q0 33 23.5 56.5t55.5 23.5z" />
    <glyph glyph-name="cedilla" unicode="&#xb8;" 
d="M58 -57q-43 0 -43 14q0 18 21.5 32.5t47.5 14.5q28 0 45.5 -17t17.5 -43q0 -31 -35 -60t-73 -29q-15 0 -26 6t-11 14q0 5 10 8q43 15 46 60z" />
    <glyph glyph-name="onesuperior" unicode="&#xb9;" horiz-adv-x="385" 
d="M101 367l84 227q-30 -15 -40 -15q-18 0 -18 21t14 35q8 7 74.5 38.5t77.5 31.5q24 0 24 -28q0 -5 -9 -32.5t-21.5 -62t-13.5 -38.5l-58 -194q-11 -39 -26 -54q-28 -26 -66 -26q-16 0 -28.5 11t-12.5 25q0 17 13 47q2 5 3.5 8.5t2.5 5.5z" />
    <glyph glyph-name="ordmasculine" unicode="&#xba;" horiz-adv-x="354" 
d="M246 593q14 15 36.5 26t40.5 11q30 0 50.5 -29t20.5 -72q0 -72 -54 -124t-128 -52q-33 0 -65.5 11t-49.5 28q-28 25 -28 74q0 77 67 141.5t148 64.5q43 0 43 -13q0 -9 -23 -12q-43 -5 -72.5 -35.5t-40 -63.5t-10.5 -63q0 -34 16 -55t42 -21q25 0 43 24.5t18 57.5
q0 61 -54 102z" />
    <glyph glyph-name="guillemotright" unicode="&#xbb;" horiz-adv-x="323" 
d="M165 338q0 7 5.5 13t10.5 6q19 0 74 -58t55 -82q0 -20 -77 -73t-92 -53q-7 0 -12 5t-5 11q0 10 18.5 29.5t46.5 39.5q22 16 38 32t16 23q0 10 -39 56.5t-39 50.5zM117 237q-16 24 -47 54q-24 24 -24 31q0 16 15 16q28 0 67 -42t39 -61q0 -22 -53 -72t-74 -50
q-15 0 -15 23q0 29 92 101z" />
    <glyph glyph-name="onequarter" unicode="&#xbc;" horiz-adv-x="750" 
d="M522 468l-17 -25l-13 -18q-142 -196 -274 -358q-52 -64 -77 -84.5t-46 -20.5q-14 0 -24 8.5t-10 21.5q0 42 172 297l205 304q27 39 64 74.5t68 35.5q20 0 34.5 -17.5t14.5 -41.5t-17 -53.5t-80 -122.5zM514 294q34 32 84 32q20 0 20 -13t-45 -76q-42 -57 -66 -106
q47 -1 73 2q11 30 19 43.5t28 25t53 11.5q30 0 30 -14q0 -10 -21 -66q1 0 7 0.5t7 0.5q13 0 13 -8q0 -9 -17 -31t-34 -32q-19 -51 -36 -141q-57 -33 -89 -33t-32 27q0 21 32 100q4 10 8 21t6 16q-48 -4 -73 -4q-35 0 -46.5 4.5t-11.5 17.5q0 11 20 69q44 125 71 154zM43 367
l84 227q-30 -15 -40 -15q-18 0 -18 21t14 35q8 7 74.5 38.5t77.5 31.5q24 0 24 -28q0 -5 -9 -32.5t-21.5 -62t-13.5 -38.5l-58 -194q-11 -39 -26 -54q-28 -26 -66 -26q-16 0 -28.5 11t-12.5 25q0 17 13 47q2 5 3.5 8.5t2.5 5.5z" />
    <glyph glyph-name="onehalf" unicode="&#xbd;" horiz-adv-x="750" 
d="M522 468l-17 -25l-13 -18q-146 -199 -274 -357q-52 -65 -77 -85.5t-46 -20.5q-14 0 -24 9t-10 22q0 41 172 296l205 304q24 37 62.5 74t69.5 37q20 0 34.5 -18t14.5 -42t-17 -53.5t-80 -122.5zM710 4q-5 -37 -50 -82q-34 -33 -101 -33q-44 0 -80 14t-36 31q0 12 35 50
q16 17 42 50q76 99 76 164q0 21 -7 38.5t-14 24.5t-11 7q-3 0 -8 -10.5t-9.5 -29t-4.5 -36.5q0 -19 4 -43q3 -14 3 -16q0 -10 -12 -10q-25 0 -46.5 26t-21.5 57q0 49 38.5 83.5t92.5 34.5q52 0 83.5 -26t31.5 -69q0 -73 -141 -234q18 -4 42 -4q38 0 94 13zM43 367l84 227
q-30 -15 -40 -15q-18 0 -18 21t14 35q8 7 74.5 38.5t77.5 31.5q24 0 24 -28q0 -5 -9 -32.5t-21.5 -62t-13.5 -38.5l-58 -194q-11 -39 -26 -54q-28 -26 -66 -26q-16 0 -28.5 11t-12.5 25q0 17 13 47q2 5 3.5 8.5t2.5 5.5z" />
    <glyph glyph-name="threequarters" unicode="&#xbe;" horiz-adv-x="854" 
d="M264 525q88 -3 88 -71q0 -58 -73.5 -123.5t-154.5 -65.5q-46 0 -73 22t-27 60q0 39 27.5 67.5t54 38.5t42.5 10q11 0 11 -8q0 -4 -4 -8q-38 -43 -38 -91q0 -37 17 -37q28 0 63 41.5t35 81.5q0 38 -42 47q-25 6 -25 17q0 7 16 22q51 45 51 96q0 20 -12 20q-15 0 -32.5 -24
t-28.5 -58q-6 -19 -12 -19q-15 0 -29.5 19t-14.5 39q0 41 39 70t95 29q52 0 80.5 -20.5t28.5 -58.5q0 -52 -82 -96zM631 469l-17 -25l-13 -18q-140 -193 -273 -358q-52 -65 -77.5 -85.5t-46.5 -20.5q-14 0 -24 9t-10 22q0 42 173 297l205 304q26 38 63 74t68 36q19 0 34 -18
t15 -41q0 -25 -18 -57t-79 -119zM547 132l48 123q13 27 25 39t34 21q28 11 51 11q20 0 20 -13q0 -11 -45 -76q-46 -65 -66 -106q47 -1 73 2q11 30 19 43.5t28 25.5t53 12q30 0 30 -15q0 -10 -21 -66q1 0 7 0.5t7 0.5q13 0 13 -8q0 -9 -17 -31t-34 -32q-16 -43 -36 -141
q-57 -33 -89 -33t-32 27q0 21 32 100q4 10 8 21t6 16q-48 -4 -73 -4q-35 0 -46.5 4.5t-11.5 17.5q0 19 17 61z" />
    <glyph glyph-name="questiondown" unicode="&#xbf;" horiz-adv-x="406" 
d="M158 185q-15 0 -52 -1t-51 -1q-18 0 -18 12q0 10 12.5 30t26.5 34q56 53 181 53q94 0 94 -36q0 -11 -30 -48q-127 -155 -127 -264q0 -32 13 -52.5t35 -20.5q13 0 31 46q26 58 26 117q0 21 -8 43q-2 6 -2 10q0 9 12 9q31 0 59 -44.5t28 -93.5q0 -70 -48 -114t-123 -44
q-80 0 -138 43t-58 103q0 37 13.5 71t39.5 64.5t41.5 46t42.5 37.5zM321 497q19 0 32 -12.5t13 -31.5q0 -18 -11 -46.5t-23 -39.5q-36 -36 -104 -36q-45 0 -45 32q0 14 9 48.5t20 44.5q14 14 53 27.5t56 13.5z" />
    <glyph glyph-name="Agrave" unicode="&#xc0;" horiz-adv-x="729" 
d="M409 277l-43 190l-90 -190h133zM324 595l-30 54q35 25 112 25q71 0 102 -56.5t52 -187.5q30 -183 133 -376q-76 -55 -121 -55q-50 0 -74 35t-57 134q-56 -24 -89 -24q-18 0 -67 2t-68 2q-42 -89 -78 -120t-108 -31q-49 0 -49 25q0 15 54 89q19 26 28 40q-51 9 -51 36
q0 21 41 64q19 20 35.5 25.5t59.5 6.5q92 168 175 312zM388 926q10 0 16.5 -7t17.5 -27q25 -51 72 -90q19 -15 19 -27q0 -22 -36 -22q-39 0 -74 14.5t-56 33.5t-33 36.5t-12 25.5q0 9 35.5 36t50.5 27z" />
    <glyph glyph-name="Aacute" unicode="&#xc1;" horiz-adv-x="729" 
d="M409 277l-43 190l-90 -190h133zM324 595l-30 54q35 25 112 25q71 0 102 -56.5t52 -187.5q30 -183 133 -376q-76 -55 -121 -55q-50 0 -74 35t-57 134q-56 -24 -89 -24q-18 0 -67 2t-68 2q-42 -89 -78 -120t-108 -31q-49 0 -49 25q0 15 54 89q19 26 28 40q-51 9 -51 36
q0 21 41 64q19 20 35.5 25.5t59.5 6.5q92 168 175 312zM387 810q23 25 50 66q11 17 15 21t12 8q65 24 102 24q15 0 15 -13q0 -21 -32 -59t-84 -70.5t-98 -32.5q-21 0 -21 15q0 9 19 23q8 6 22 18z" />
    <glyph glyph-name="Acircumflex" unicode="&#xc2;" horiz-adv-x="729" 
d="M409 277l-43 190l-90 -190h133zM324 595l-30 54q35 25 112 25q71 0 102 -56.5t52 -187.5q30 -183 133 -376q-76 -55 -121 -55q-50 0 -74 35t-57 134q-56 -24 -89 -24q-18 0 -67 2t-68 2q-42 -89 -78 -120t-108 -31q-49 0 -49 25q0 15 54 89q19 26 28 40q-51 9 -51 36
q0 21 41 64q19 20 35.5 25.5t59.5 6.5q92 168 175 312zM412 821q-60 -37 -87 -37q-33 0 -33 25q0 17 24 32.5t84 37.5q58 22 71 22q12 0 30 -19q34 -37 59 -57q21 -18 21 -24q0 -12 -21 -22t-46 -10q-49 0 -102 52z" />
    <glyph glyph-name="Atilde" unicode="&#xc3;" horiz-adv-x="729" 
d="M409 277l-43 190l-90 -190h133zM324 595l-30 54q35 25 112 25q71 0 102 -56.5t52 -187.5q30 -183 133 -376q-76 -55 -121 -55q-50 0 -74 35t-57 134q-56 -24 -89 -24q-18 0 -67 2t-68 2q-42 -89 -78 -120t-108 -31q-49 0 -49 25q0 15 54 89q19 26 28 40q-51 9 -51 36
q0 21 41 64q19 20 35.5 25.5t59.5 6.5q92 168 175 312zM311 784q-25 0 -25 16q0 21 52 42t83 21t65 -25q26 -18 40 -18q15 0 31 5l14 2q14 0 14 -14t-39.5 -35.5t-68.5 -21.5q-31 0 -69 27q-23 16 -35 16q-4 0 -30.5 -7.5t-31.5 -7.5z" />
    <glyph glyph-name="Adieresis" unicode="&#xc4;" horiz-adv-x="729" 
d="M409 277l-43 190l-90 -190h133zM324 595l-30 54q35 25 112 25q71 0 102 -56.5t52 -187.5q30 -183 133 -376q-76 -55 -121 -55q-50 0 -74 35t-57 134q-56 -24 -89 -24q-18 0 -67 2t-68 2q-42 -89 -78 -120t-108 -31q-49 0 -49 25q0 15 54 89q19 26 28 40q-51 9 -51 36
q0 21 41 64q19 20 35.5 25.5t59.5 6.5q92 168 175 312zM313 774q-41 0 -41 30q0 16 13 45.5t23 38.5q11 11 38.5 18.5t54.5 7.5q32 0 32 -29q0 -43 -36.5 -77t-83.5 -34zM505 753q-60 0 -60 45q0 44 27 71q19 19 73 19q46 0 46 -26q0 -15 -16 -47t-32 -49q-13 -13 -38 -13z
" />
    <glyph glyph-name="Aring" unicode="&#xc5;" horiz-adv-x="729" 
d="M409 277l-43 190l-90 -190h133zM324 595l-30 54q35 25 112 25q71 0 102 -56.5t52 -187.5q30 -183 133 -376q-76 -55 -121 -55q-50 0 -74 35t-57 134q-56 -24 -89 -24q-18 0 -67 2t-68 2q-42 -89 -78 -120t-108 -31q-49 0 -49 25q0 15 54 89q19 26 28 40q-51 9 -51 36
q0 21 41 64q19 20 35.5 25.5t59.5 6.5q92 168 175 312zM400 905q32 31 61 31q31 0 53 -24t22 -58q0 -43 -34 -73t-82 -30q-47 0 -72.5 19.5t-25.5 54.5q0 32 22 54.5t56 25.5zM444 797q15 0 26 11t11 26q0 20 -16.5 31t-44.5 11q-29 0 -29 -14q0 -28 9 -40q8 -10 22 -17.5
t22 -7.5z" />
    <glyph glyph-name="AE" unicode="&#xc6;" horiz-adv-x="1010" 
d="M373 443l-6 24l-13 -24q-58 -112 -75 -149l-12 -24h143l-5 24q-16 81 -32 149zM377 153l-20 -1q-8 0 -71 -0.5t-76 -1.5q-4 -7 -13 -23q-48 -85 -75.5 -110t-86.5 -25q-22 0 -36 11t-14 28q0 18 58 96q17 24 20 28q-23 9 -31 16.5t-8 20.5q0 21 13.5 39.5t35.5 28.5
q26 11 69 12q125 226 178 326q-12 21 -31 31q-10 4 -10 9q0 11 39 22.5t61 11.5q56 0 93.5 -39t65.5 -131q48 74 134.5 124.5t165.5 50.5q53 0 88 -30t35 -76q0 -77 -61.5 -140.5t-134.5 -63.5q-24 0 -24 15q0 18 27 53q70 89 70 142q0 16 -8 16q-14 0 -47 -18t-71 -48
t-67.5 -78t-31.5 -99q97 -7 165 -7q6 0 43.5 1.5t45.5 1.5q55 -1 55 -21q0 -11 -16 -36t-36 -44q-15 -15 -29.5 -19.5t-48.5 -4.5q-82 0 -154 1h-21q8 -116 94 -116q50 0 130 46q4 3 37 22q37 23 47 23q17 0 17 -20q0 -17 -12 -45.5t-25 -40.5q-41 -37 -135 -71.5
t-154 -34.5q-70 0 -126 59q-23 25 -34.5 53.5t-24.5 86.5q-24 -23 -35 -28q-3 -2 -19 -3z" />
    <glyph glyph-name="Ccedilla" unicode="&#xc7;" horiz-adv-x="615" 
d="M264 -3q33 -16 33 -53q0 -31 -35 -60t-73 -29q-15 0 -26 6t-11 14q0 5 10 8q43 15 46 60q-43 0 -43 14q0 26 40 42q-78 13 -128.5 72t-50.5 139q0 105 89 236q68 101 173.5 163t176.5 62q64 0 100 -33.5t36 -92.5q0 -76 -42.5 -153t-99 -123t-99.5 -46q-24 0 -24 23
q0 10 13 30q22 32 41 78q46 120 46 210q0 25 -11 25q-13 0 -43.5 -32.5t-64.5 -83.5t-59.5 -127.5t-25.5 -150.5q0 -49 10.5 -66.5t38.5 -17.5q34 0 94 27t95.5 48.5t54.5 34.5q42 27 53 27q15 0 15 -17q0 -20 -20 -62.5t-38 -57.5q-44 -39 -126.5 -73.5t-144.5 -40.5z" />
    <glyph glyph-name="Egrave" unicode="&#xc8;" horiz-adv-x="615" 
d="M424 213h-178q-3 -47 19 -76.5t47 -29.5q58 0 183 73l17 10q7 4 24 14q27 19 36 19t9 -16q0 -27 -14 -63.5t-28 -50.5q-35 -31 -129.5 -67.5t-146.5 -36.5q-103 0 -171 59t-68 148q0 72 44 162t114 162q63 65 137.5 105t131.5 40q61 0 104 -34.5t43 -83.5
q0 -46 -24 -83.5t-58 -57t-65 -30t-52 -10.5q-29 0 -29 14q0 9 16 25q28 29 46 71t22.5 66.5t4.5 35.5q0 18 -10 18q-12 0 -39.5 -19.5t-59.5 -51.5t-59.5 -81t-35.5 -99h261q43 0 43 -22q0 -20 -45.5 -65t-89.5 -45zM366 926q10 0 16.5 -7t17.5 -27q25 -51 72 -90
q19 -15 19 -27q0 -22 -36 -22q-39 0 -74 14.5t-56 33.5t-33 36.5t-12 25.5q0 9 35.5 36t50.5 27z" />
    <glyph glyph-name="Eacute" unicode="&#xc9;" horiz-adv-x="615" 
d="M424 213h-178q-3 -47 19 -76.5t47 -29.5q58 0 183 73l17 10q7 4 24 14q27 19 36 19t9 -16q0 -27 -14 -63.5t-28 -50.5q-35 -31 -129.5 -67.5t-146.5 -36.5q-103 0 -171 59t-68 148q0 72 44 162t114 162q63 65 137.5 105t131.5 40q61 0 104 -34.5t43 -83.5
q0 -46 -24 -83.5t-58 -57t-65 -30t-52 -10.5q-29 0 -29 14q0 9 16 25q28 29 46 71t22.5 66.5t4.5 35.5q0 18 -10 18q-12 0 -39.5 -19.5t-59.5 -51.5t-59.5 -81t-35.5 -99h261q43 0 43 -22q0 -20 -45.5 -65t-89.5 -45zM365 810q23 25 50 66q11 17 15 21t12 8q65 24 102 24
q15 0 15 -13q0 -21 -32 -59t-84 -70.5t-98 -32.5q-21 0 -21 15q0 9 19 23q8 6 22 18z" />
    <glyph glyph-name="Ecircumflex" unicode="&#xca;" horiz-adv-x="615" 
d="M424 213h-178q-3 -47 19 -76.5t47 -29.5q58 0 183 73l17 10q7 4 24 14q27 19 36 19t9 -16q0 -27 -14 -63.5t-28 -50.5q-35 -31 -129.5 -67.5t-146.5 -36.5q-103 0 -171 59t-68 148q0 72 44 162t114 162q63 65 137.5 105t131.5 40q61 0 104 -34.5t43 -83.5
q0 -46 -24 -83.5t-58 -57t-65 -30t-52 -10.5q-29 0 -29 14q0 9 16 25q28 29 46 71t22.5 66.5t4.5 35.5q0 18 -10 18q-12 0 -39.5 -19.5t-59.5 -51.5t-59.5 -81t-35.5 -99h261q43 0 43 -22q0 -20 -45.5 -65t-89.5 -45zM390 821q-60 -37 -87 -37q-33 0 -33 25q0 17 24 32.5
t84 37.5q58 22 71 22q12 0 30 -19q34 -37 59 -57q21 -18 21 -24q0 -12 -21 -22t-46 -10q-49 0 -102 52z" />
    <glyph glyph-name="Edieresis" unicode="&#xcb;" horiz-adv-x="615" 
d="M424 213h-178q-3 -47 19 -76.5t47 -29.5q58 0 183 73l17 10q7 4 24 14q27 19 36 19t9 -16q0 -27 -14 -63.5t-28 -50.5q-35 -31 -129.5 -67.5t-146.5 -36.5q-103 0 -171 59t-68 148q0 72 44 162t114 162q63 65 137.5 105t131.5 40q61 0 104 -34.5t43 -83.5
q0 -46 -24 -83.5t-58 -57t-65 -30t-52 -10.5q-29 0 -29 14q0 9 16 25q28 29 46 71t22.5 66.5t4.5 35.5q0 18 -10 18q-12 0 -39.5 -19.5t-59.5 -51.5t-59.5 -81t-35.5 -99h261q43 0 43 -22q0 -20 -45.5 -65t-89.5 -45zM291 774q-41 0 -41 30q0 16 13 45.5t23 38.5
q11 11 38.5 18.5t54.5 7.5q32 0 32 -29q0 -43 -36.5 -77t-83.5 -34zM483 753q-60 0 -60 45q0 44 27 71q19 19 73 19q46 0 46 -26q0 -15 -16 -47t-32 -49q-13 -13 -38 -13z" />
    <glyph glyph-name="Igrave" unicode="&#xcc;" horiz-adv-x="580" 
d="M363 578q-45 0 -140 -31q-69 -23 -93 -23q-16 0 -26.5 9.5t-10.5 24.5q0 24 26 58t54 45q37 16 165 16q81 0 148 -10.5t83 -25.5q5 -6 5 -21q0 -54 -54.5 -210t-135.5 -304q-34 -63 -67.5 -86.5t-87.5 -23.5q-80 0 -136 43t-56 105q0 36 18.5 78t37.5 42q30 0 61 -68
q30 -64 70 -109q94 211 139 491zM349 926q10 0 16.5 -7t17.5 -27q25 -51 72 -90q19 -15 19 -27q0 -22 -36 -22q-39 0 -74 14.5t-56 33.5t-33 36.5t-12 25.5q0 9 35.5 36t50.5 27z" />
    <glyph glyph-name="Iacute" unicode="&#xcd;" horiz-adv-x="580" 
d="M363 578q-45 0 -140 -31q-69 -23 -93 -23q-16 0 -26.5 9.5t-10.5 24.5q0 24 26 58t54 45q37 16 165 16q81 0 148 -10.5t83 -25.5q5 -6 5 -21q0 -54 -54.5 -210t-135.5 -304q-34 -63 -67.5 -86.5t-87.5 -23.5q-80 0 -136 43t-56 105q0 36 18.5 78t37.5 42q30 0 61 -68
q30 -64 70 -109q94 211 139 491zM348 810q23 25 50 66q11 17 15 21t12 8q65 24 102 24q15 0 15 -13q0 -21 -32 -59t-84 -70.5t-98 -32.5q-21 0 -21 15q0 9 19 23q8 6 22 18z" />
    <glyph glyph-name="Icircumflex" unicode="&#xce;" horiz-adv-x="580" 
d="M363 578q-45 0 -140 -31q-69 -23 -93 -23q-16 0 -26.5 9.5t-10.5 24.5q0 24 26 58t54 45q37 16 165 16q81 0 148 -10.5t83 -25.5q5 -6 5 -21q0 -54 -54.5 -210t-135.5 -304q-34 -63 -67.5 -86.5t-87.5 -23.5q-80 0 -136 43t-56 105q0 36 18.5 78t37.5 42q30 0 61 -68
q30 -64 70 -109q94 211 139 491zM373 821q-60 -37 -87 -37q-33 0 -33 25q0 17 24 32.5t84 37.5q58 22 71 22q12 0 30 -19q34 -37 59 -57q21 -18 21 -24q0 -12 -21 -22t-46 -10q-49 0 -102 52z" />
    <glyph glyph-name="Idieresis" unicode="&#xcf;" horiz-adv-x="580" 
d="M363 578q-45 0 -140 -31q-69 -23 -93 -23q-16 0 -26.5 9.5t-10.5 24.5q0 24 26 58t54 45q37 16 165 16q81 0 148 -10.5t83 -25.5q5 -6 5 -21q0 -54 -54.5 -210t-135.5 -304q-34 -63 -67.5 -86.5t-87.5 -23.5q-80 0 -136 43t-56 105q0 36 18.5 78t37.5 42q30 0 61 -68
q30 -64 70 -109q94 211 139 491zM274 774q-41 0 -41 30q0 16 13 45.5t23 38.5q11 11 38.5 18.5t54.5 7.5q32 0 32 -29q0 -43 -36.5 -77t-83.5 -34zM466 753q-60 0 -60 45q0 44 27 71q19 19 73 19q46 0 46 -26q0 -15 -16 -47t-32 -49q-13 -13 -38 -13z" />
    <glyph glyph-name="Eth" unicode="&#xd0;" horiz-adv-x="677" 
d="M275 277l-22 -85q-15 -57 -22 -74t-28 -42q77 -2 119 8.5t83 51.5q84 86 84 215q0 91 -38.5 150t-99.5 62l-63 -238h47q41 0 41 -20q0 -28 -59 -28h-42zM95 324l42 146q11 38 20 53.5t27 29.5q-18 1 -65 -15q-48 -18 -68 -18q-17 0 -17 15q0 20 14.5 48.5t32.5 44.5
q28 24 109.5 38.5t192.5 14.5q138 0 213 -65t75 -186q0 -54 -14 -110t-48 -114.5t-83.5 -103.5t-127.5 -73.5t-174 -28.5q-66 0 -121.5 10.5t-72.5 26.5q-11 9 -11 26q0 4 2 14l59 201h-31q-78 0 -78 17q0 29 87 29h37z" />
    <glyph glyph-name="Ntilde" unicode="&#xd1;" horiz-adv-x="802" 
d="M310 428l-60 -186l-5 -14q-5 -14 -12 -34.5t-15.5 -42.5t-17.5 -42.5t-15 -30.5q-24 -39 -64 -60.5t-77 -21.5q-25 0 -25 20q0 15 22 52q38 66 72 155l34 92l46 118q25 64 43 101q14 26 14 37q0 14 -23 31q-15 10 -15 18q0 13 55.5 30.5t87.5 17.5q40 0 62 -22
q24 -26 60 -155q32 -119 62 -173q5 -10 18 -30q17 54 38 134q32 131 59 177q21 36 53.5 50t55.5 14q14 0 19.5 -7.5t5.5 -26.5q0 -47 -109 -343l-7 -18q-67 -186 -97 -234q-21 -34 -45 -34q-37 0 -81 80q-52 95 -81 168t-58 180zM383 784q-25 0 -25 16q0 21 52 42t83 21
t65 -25q26 -18 40 -18q15 0 31 5q3 0 6 0.5t5 1t3 0.5q14 0 14 -14t-39.5 -35.5t-68.5 -21.5q-31 0 -69 27q-23 16 -35 16q-4 0 -30.5 -7.5t-31.5 -7.5z" />
    <glyph glyph-name="Ograve" unicode="&#xd2;" horiz-adv-x="635" 
d="M417 486q0 18 22 40q64 60 108 60q77 0 77 -169q0 -176 -102.5 -299.5t-247.5 -123.5q-26 0 -55.5 5t-65 20t-63.5 38.5t-47 64t-19 92.5q0 107 76.5 226.5t180.5 175.5q102 55 189 55q56 0 56 -18q0 -7 -12 -21q-20 -19 -36.5 -28t-52.5 -19q-37 -11 -55.5 -21
t-46.5 -34q-108 -106 -108 -254q0 -193 106 -193q56 0 107.5 72t51.5 151q0 66 -46 140q-17 28 -17 40zM376 926q10 0 16.5 -7t17.5 -27q25 -51 72 -90q19 -15 19 -27q0 -22 -36 -22q-39 0 -74 14.5t-56 33.5t-33 36.5t-12 25.5q0 9 35.5 36t50.5 27z" />
    <glyph glyph-name="Oacute" unicode="&#xd3;" horiz-adv-x="635" 
d="M417 486q0 18 22 40q64 60 108 60q77 0 77 -169q0 -176 -102.5 -299.5t-247.5 -123.5q-26 0 -55.5 5t-65 20t-63.5 38.5t-47 64t-19 92.5q0 107 76.5 226.5t180.5 175.5q102 55 189 55q56 0 56 -18q0 -7 -12 -21q-20 -19 -36.5 -28t-52.5 -19q-37 -11 -55.5 -21
t-46.5 -34q-108 -106 -108 -254q0 -193 106 -193q56 0 107.5 72t51.5 151q0 66 -46 140q-17 28 -17 40zM375 810q23 25 50 66q11 17 15 21t12 8q65 24 102 24q15 0 15 -13q0 -21 -32 -59t-84 -70.5t-98 -32.5q-21 0 -21 15q0 9 19 23q8 6 22 18z" />
    <glyph glyph-name="Ocircumflex" unicode="&#xd4;" horiz-adv-x="635" 
d="M417 486q0 18 22 40q64 60 108 60q77 0 77 -169q0 -176 -102.5 -299.5t-247.5 -123.5q-26 0 -55.5 5t-65 20t-63.5 38.5t-47 64t-19 92.5q0 107 76.5 226.5t180.5 175.5q102 55 189 55q56 0 56 -18q0 -7 -12 -21q-20 -19 -36.5 -28t-52.5 -19q-37 -11 -55.5 -21
t-46.5 -34q-108 -106 -108 -254q0 -193 106 -193q56 0 107.5 72t51.5 151q0 66 -46 140q-17 28 -17 40zM400 821q-60 -37 -87 -37q-33 0 -33 25q0 17 24 32.5t84 37.5q58 22 71 22q12 0 30 -19q34 -37 59 -57q21 -18 21 -24q0 -12 -21 -22t-46 -10q-49 0 -102 52z" />
    <glyph glyph-name="Otilde" unicode="&#xd5;" horiz-adv-x="635" 
d="M417 486q0 18 22 40q64 60 108 60q77 0 77 -169q0 -176 -102.5 -299.5t-247.5 -123.5q-26 0 -55.5 5t-65 20t-63.5 38.5t-47 64t-19 92.5q0 107 76.5 226.5t180.5 175.5q102 55 189 55q56 0 56 -18q0 -7 -12 -21q-20 -19 -36.5 -28t-52.5 -19q-37 -11 -55.5 -21
t-46.5 -34q-108 -106 -108 -254q0 -193 106 -193q56 0 107.5 72t51.5 151q0 66 -46 140q-17 28 -17 40zM299 784q-25 0 -25 16q0 21 52 42t83 21t65 -25q26 -18 40 -18q15 0 31 5q3 0 6 0.5t5 1t3 0.5q14 0 14 -14t-39.5 -35.5t-68.5 -21.5q-31 0 -69 27q-23 16 -35 16
q-4 0 -30.5 -7.5t-31.5 -7.5z" />
    <glyph glyph-name="Odieresis" unicode="&#xd6;" horiz-adv-x="635" 
d="M417 486q0 18 22 40q64 60 108 60q77 0 77 -169q0 -176 -102.5 -299.5t-247.5 -123.5q-26 0 -55.5 5t-65 20t-63.5 38.5t-47 64t-19 92.5q0 107 76.5 226.5t180.5 175.5q102 55 189 55q56 0 56 -18q0 -7 -12 -21q-20 -19 -36.5 -28t-52.5 -19q-37 -11 -55.5 -21
t-46.5 -34q-108 -106 -108 -254q0 -193 106 -193q56 0 107.5 72t51.5 151q0 66 -46 140q-17 28 -17 40zM301 774q-41 0 -41 30q0 16 13 45.5t23 38.5q11 11 38.5 18.5t54.5 7.5q32 0 32 -29q0 -43 -36.5 -77t-83.5 -34zM493 753q-60 0 -60 45q0 44 27 71q19 19 73 19
q46 0 46 -26q0 -15 -16 -47t-32 -49q-13 -13 -38 -13z" />
    <glyph glyph-name="multiply" unicode="&#xd7;" horiz-adv-x="667" 
d="M260 329l-183 183l74 74l183 -183l183 183l74 -74l-182 -183l181 -181l-74 -74l-181 181l-182 -181l-74 74z" />
    <glyph glyph-name="Oslash" unicode="&#xd8;" horiz-adv-x="637" 
d="M216 218l227 210q-28 47 -28 60q0 25 49.5 61.5t79.5 36.5q28 0 50 -25q16 12 24 12q10 0 10 -19q0 -17 -2.5 -23.5t-14.5 -20.5q11 -42 11 -94q0 -92 -33.5 -179.5t-91.5 -144.5q-43 -43 -104.5 -71t-119.5 -28q-51 0 -102.5 17.5t-83.5 46.5q-28 -21 -39 -21t-11 9
t25 35q-42 59 -42 129q0 111 65.5 219t171 175.5t213.5 67.5q55 0 55 -19q0 -4 -3 -10t-26.5 -22t-66.5 -31q-46 -16 -73.5 -32.5t-53.5 -46.5q-91 -103 -91 -229q0 -26 5 -63zM468 375l-29 -26q-88 -80 -212 -179q28 -87 91 -87q56 0 108.5 72t52.5 149q0 29 -11 71z" />
    <glyph glyph-name="Ugrave" unicode="&#xd9;" horiz-adv-x="625" 
d="M13 134q0 85 48.5 255t92.5 248q24 40 122 40q52 0 52 -45q0 -26 -22 -76q-29 -66 -53 -149t-35 -136t-11 -66q0 -18 9 -18q19 0 96 112t121 194q33 61 49 73q27 19 60 19q46 0 46 -41q0 -8 -3 -34q-13 -98 -13 -197q0 -105 23 -206q9 -41 9 -60q0 -23 -49 -37
q-30 -10 -51 -10q-61 0 -95 77q-23 51 -28 153q-71 -121 -119 -169q-65 -65 -122 -65q-61 0 -94 36.5t-33 101.5zM371 926q10 0 16.5 -7t17.5 -27q25 -51 72 -90q19 -15 19 -27q0 -22 -36 -22q-39 0 -74 14.5t-56 33.5t-33 36.5t-12 25.5q0 9 35.5 36t50.5 27z" />
    <glyph glyph-name="Uacute" unicode="&#xda;" horiz-adv-x="625" 
d="M13 134q0 85 48.5 255t92.5 248q24 40 122 40q52 0 52 -45q0 -26 -22 -76q-29 -66 -53 -149t-35 -136t-11 -66q0 -18 9 -18q19 0 96 112t121 194q33 61 49 73q27 19 60 19q46 0 46 -41q0 -8 -3 -34q-13 -98 -13 -197q0 -105 23 -206q9 -41 9 -60q0 -23 -49 -37
q-30 -10 -51 -10q-61 0 -95 77q-23 51 -28 153q-71 -121 -119 -169q-65 -65 -122 -65q-61 0 -94 36.5t-33 101.5zM370 810q23 25 50 66q11 17 15 21t12 8q65 24 102 24q15 0 15 -13q0 -21 -32 -59t-84 -70.5t-98 -32.5q-21 0 -21 15q0 9 19 23q8 6 22 18z" />
    <glyph glyph-name="Ucircumflex" unicode="&#xdb;" horiz-adv-x="625" 
d="M13 134q0 85 48.5 255t92.5 248q24 40 122 40q52 0 52 -45q0 -26 -22 -76q-29 -66 -53 -149t-35 -136t-11 -66q0 -18 9 -18q19 0 96 112t121 194q33 61 49 73q27 19 60 19q46 0 46 -41q0 -8 -3 -34q-13 -98 -13 -197q0 -105 23 -206q9 -41 9 -60q0 -23 -49 -37
q-30 -10 -51 -10q-61 0 -95 77q-23 51 -28 153q-71 -121 -119 -169q-65 -65 -122 -65q-61 0 -94 36.5t-33 101.5zM395 821q-60 -37 -87 -37q-33 0 -33 25q0 17 24 32.5t84 37.5q58 22 71 22q12 0 30 -19q34 -37 59 -57q21 -18 21 -24q0 -12 -21 -22t-46 -10q-49 0 -102 52z
" />
    <glyph glyph-name="Udieresis" unicode="&#xdc;" horiz-adv-x="625" 
d="M13 134q0 85 48.5 255t92.5 248q24 40 122 40q52 0 52 -45q0 -26 -22 -76q-29 -66 -53 -149t-35 -136t-11 -66q0 -18 9 -18q19 0 96 112t121 194q33 61 49 73q27 19 60 19q46 0 46 -41q0 -8 -3 -34q-13 -98 -13 -197q0 -105 23 -206q9 -41 9 -60q0 -23 -49 -37
q-30 -10 -51 -10q-61 0 -95 77q-23 51 -28 153q-71 -121 -119 -169q-65 -65 -122 -65q-61 0 -94 36.5t-33 101.5zM296 774q-41 0 -41 30q0 16 13 45.5t23 38.5q11 11 38.5 18.5t54.5 7.5q32 0 32 -29q0 -43 -36.5 -77t-83.5 -34zM488 753q-60 0 -60 45q0 44 27 71
q19 19 73 19q46 0 46 -26q0 -15 -16 -47t-32 -49q-13 -13 -38 -13z" />
    <glyph glyph-name="Yacute" unicode="&#xdd;" horiz-adv-x="688" 
d="M372 160q68 140 108 249q23 65 40 100q29 63 82.5 102t81.5 39q19 0 19 -15q0 -30 -98.5 -231t-162.5 -304q-54 -87 -103.5 -143.5t-77 -75t-61.5 -33.5q-55 -22 -98 -22q-55 0 -55 35q0 18 18 54.5t36 55.5q11 11 43 11q66 0 133 44q-73 125 -111 229q-57 161 -57 290
q0 34 7.5 51.5t27.5 30.5q29 18 64 31t57 13q19 0 26 -14t8 -57q5 -109 24 -232t49 -208zM422 810q23 25 50 66q11 17 15 21t12 8q65 24 102 24q15 0 15 -13q0 -21 -32 -59t-84 -70.5t-98 -32.5q-21 0 -21 15q0 9 19 23q8 6 22 18z" />
    <glyph glyph-name="Thorn" unicode="&#xde;" horiz-adv-x="594" 
d="M338 486l-84 -277q51 1 96.5 51.5t45.5 106.5q0 73 -58 119zM48 128l42 142q37 121 76 229l6 17l20 55l12 35q8 21 16 33.5t31.5 26t57.5 13.5t53.5 -14t19.5 -38q0 -5 -3 -17q54 -9 88 -27q98 -51 98 -165q0 -102 -79 -181.5t-181 -79.5q-24 0 -63 6q-21 -70 -40 -95
q-20 -26 -67.5 -47t-66.5 -21q-41 0 -41 39q0 21 21 89z" />
    <glyph glyph-name="germandbls" unicode="&#xdf;" horiz-adv-x="583" 
d="M326 323l-16 18q83 69 83 140q0 36 -22.5 67.5t-48.5 31.5q-18 0 -18 -10q0 -2 4 -37t4 -42q0 -17 -9 -28t-33 -23q0 -25 -3 -44q-2 -13 -10 -56.5t-17 -91.5t-11 -59q17 22 40 39t36 17q6 0 6 -9q0 -2 -1.5 -19t-1.5 -21q0 -36 12.5 -65.5t24.5 -41.5t18 -12t15.5 18.5
t17.5 52t8 66.5q0 49 -18.5 74.5t-59.5 34.5zM181 455q-9 26 -9 43q0 76 52.5 127.5t129.5 51.5q61 0 105 -42.5t44 -101.5q0 -39 -20.5 -68.5t-64.5 -71.5q64 -7 91.5 -33.5t27.5 -81.5q0 -61 -38.5 -127t-97.5 -109.5t-114 -43.5q-46 0 -76 18t-50 58q-37 -81 -106 -81
q-27 0 -43.5 11.5t-16.5 30.5q0 49 15 105q7 26 19 72q15 57 22 81t18 57t19 44.5t22.5 27t30.5 21.5t40 12z" />
    <glyph glyph-name="agrave" unicode="&#xe0;" horiz-adv-x="552" 
d="M354 241l12 13q-42 -13 -63 -13q-18 0 -18 10q0 6 8 18q26 40 26 78q0 20 -7.5 38t-13.5 18q-11 0 -40.5 -33.5t-56.5 -85t-27 -91.5q0 -27 11 -44.5t28 -17.5q31 0 141 110zM335 142q-137 -155 -213 -155q-55 0 -91 36t-36 92q0 70 51 153t134 142.5t164 59.5
q62 0 102.5 -25.5t40.5 -64.5q0 -30 -20 -61q25 0 32 -5.5t8 -26.5q0 -8 -2.5 -55t-2.5 -56q0 -80 18 -127q-56 -56 -110 -56q-27 0 -44.5 15.5t-23 43.5t-7 46t-0.5 44zM335 723q10 0 16.5 -7t17.5 -27q25 -51 72 -90q19 -15 19 -27q0 -22 -36 -22q-39 0 -74 14.5t-56 33.5
t-33 36.5t-12 25.5q0 9 35.5 36t50.5 27z" />
    <glyph glyph-name="aacute" unicode="&#xe1;" horiz-adv-x="552" 
d="M354 241l12 13q-42 -13 -63 -13q-18 0 -18 10q0 6 8 18q26 40 26 78q0 20 -7.5 38t-13.5 18q-11 0 -40.5 -33.5t-56.5 -85t-27 -91.5q0 -27 11 -44.5t28 -17.5q31 0 141 110zM335 142q-137 -155 -213 -155q-55 0 -91 36t-36 92q0 70 51 153t134 142.5t164 59.5
q62 0 102.5 -25.5t40.5 -64.5q0 -30 -20 -61q25 0 32 -5.5t8 -26.5q0 -8 -2.5 -55t-2.5 -56q0 -80 18 -127q-56 -56 -110 -56q-27 0 -44.5 15.5t-23 43.5t-7 46t-0.5 44zM334 607q23 25 50 66q11 17 15 21t12 8q65 24 102 24q15 0 15 -13q0 -21 -32 -59t-84 -70.5t-98 -32.5
q-21 0 -21 15q0 9 19 23q8 6 22 18z" />
    <glyph glyph-name="acircumflex" unicode="&#xe2;" horiz-adv-x="552" 
d="M354 241l12 13q-42 -13 -63 -13q-18 0 -18 10q0 6 8 18q26 40 26 78q0 20 -7.5 38t-13.5 18q-11 0 -40.5 -33.5t-56.5 -85t-27 -91.5q0 -27 11 -44.5t28 -17.5q31 0 141 110zM335 142q-137 -155 -213 -155q-55 0 -91 36t-36 92q0 70 51 153t134 142.5t164 59.5
q62 0 102.5 -25.5t40.5 -64.5q0 -30 -20 -61q25 0 32 -5.5t8 -26.5q0 -8 -2.5 -55t-2.5 -56q0 -80 18 -127q-56 -56 -110 -56q-27 0 -44.5 15.5t-23 43.5t-7 46t-0.5 44zM359 618q-60 -37 -87 -37q-33 0 -33 25q0 17 24 32.5t84 37.5q58 22 71 22q12 0 30 -19q34 -37 59 -57
q21 -18 21 -24q0 -12 -21 -22t-46 -10q-49 0 -102 52z" />
    <glyph glyph-name="atilde" unicode="&#xe3;" horiz-adv-x="552" 
d="M354 241l12 13q-42 -13 -63 -13q-18 0 -18 10q0 6 8 18q26 40 26 78q0 20 -7.5 38t-13.5 18q-11 0 -40.5 -33.5t-56.5 -85t-27 -91.5q0 -27 11 -44.5t28 -17.5q31 0 141 110zM335 142q-137 -155 -213 -155q-55 0 -91 36t-36 92q0 70 51 153t134 142.5t164 59.5
q62 0 102.5 -25.5t40.5 -64.5q0 -30 -20 -61q25 0 32 -5.5t8 -26.5q0 -8 -2.5 -55t-2.5 -56q0 -80 18 -127q-56 -56 -110 -56q-27 0 -44.5 15.5t-23 43.5t-7 46t-0.5 44zM258 581q-25 0 -25 16q0 21 52 42t83 21t65 -25q26 -18 40 -18q15 0 31 5l14 2q14 0 14 -14
t-39.5 -35.5t-68.5 -21.5q-31 0 -69 27q-23 16 -35 16q-4 0 -30.5 -7.5t-31.5 -7.5z" />
    <glyph glyph-name="adieresis" unicode="&#xe4;" horiz-adv-x="552" 
d="M354 241l12 13q-42 -13 -63 -13q-18 0 -18 10q0 6 8 18q26 40 26 78q0 20 -7.5 38t-13.5 18q-11 0 -40.5 -33.5t-56.5 -85t-27 -91.5q0 -27 11 -44.5t28 -17.5q31 0 141 110zM335 142q-137 -155 -213 -155q-55 0 -91 36t-36 92q0 70 51 153t134 142.5t164 59.5
q62 0 102.5 -25.5t40.5 -64.5q0 -30 -20 -61q25 0 32 -5.5t8 -26.5q0 -8 -2.5 -55t-2.5 -56q0 -80 18 -127q-56 -56 -110 -56q-27 0 -44.5 15.5t-23 43.5t-7 46t-0.5 44zM260 571q-41 0 -41 30q0 16 13 45.5t23 38.5q11 11 38.5 18.5t54.5 7.5q32 0 32 -29q0 -43 -36.5 -77
t-83.5 -34zM452 550q-60 0 -60 45q0 44 27 71q19 19 73 19q46 0 46 -26q0 -15 -16 -47t-32 -49q-13 -13 -38 -13z" />
    <glyph glyph-name="aring" unicode="&#xe5;" horiz-adv-x="552" 
d="M354 241l12 13q-42 -13 -63 -13q-18 0 -18 10q0 6 8 18q26 40 26 78q0 20 -7.5 38t-13.5 18q-11 0 -40.5 -33.5t-56.5 -85t-27 -91.5q0 -27 11 -44.5t28 -17.5q31 0 141 110zM335 142q-137 -155 -213 -155q-55 0 -91 36t-36 92q0 70 51 153t134 142.5t164 59.5
q62 0 102.5 -25.5t40.5 -64.5q0 -30 -20 -61q25 0 32 -5.5t8 -26.5q0 -8 -2.5 -55t-2.5 -56q0 -80 18 -127q-56 -56 -110 -56q-27 0 -44.5 15.5t-23 43.5t-7 46t-0.5 44zM347 702q32 31 61 31q31 0 53 -24t22 -58q0 -43 -34 -73t-82 -30q-47 0 -72.5 19.5t-25.5 54.5
q0 32 22 54.5t56 25.5zM391 594q15 0 26 11t11 26q0 20 -16.5 31t-44.5 11q-29 0 -29 -14q0 -28 9 -40q8 -10 22 -17.5t22 -7.5z" />
    <glyph glyph-name="ae" unicode="&#xe6;" horiz-adv-x="771" 
d="M654 344q0 10 -7 17t-18 7q-26 0 -50.5 -26.5t-39.5 -72.5q54 4 84.5 24.5t30.5 50.5zM362 374q-23 0 -53 -13t-48 -32q-27 -27 -46 -68.5t-19 -72.5q0 -26 11 -42.5t28 -16.5q32 0 90 61.5t58 132.5q0 51 -21 51zM513 415l14 9q75 50 125 50q44 0 72 -29.5t28 -76.5
t-25.5 -81.5t-62 -50.5t-65 -23t-47.5 -7q-2 0 -26 2q-8 -32 -8 -50q0 -66 55 -66q22 0 48.5 16t45.5 39q11 14 16 14q9 0 9 -13q0 -20 -14 -50t-33 -48q-65 -63 -176 -63q-72 0 -92 32t-23 114q-19 -34 -44 -58q-40 -37 -93 -60.5t-98 -23.5q-48 0 -78.5 32.5t-30.5 84.5
q0 58 30.5 114.5t76.5 97.5t81 65.5t62 38.5q121 59 180 59q24 0 44.5 -20.5t28.5 -47.5z" />
    <glyph glyph-name="ccedilla" unicode="&#xe7;" horiz-adv-x="385" 
d="M185 -7q27 -14 27 -49q0 -31 -35 -60t-73 -29q-15 0 -26 6t-11 14q0 5 10 8q43 15 46 60q-43 0 -43 14q0 25 37 40q-42 12 -66.5 45t-24.5 78q0 83 54.5 176t134.5 149q40 26 78 26q38 -2 60 -22t22 -53q0 -45 -36 -86t-76 -41q-15 0 -15 11q0 4 7 17q18 33 18 74
q0 21 -5 21q-20 0 -48 -77.5t-28 -133.5q0 -33 10.5 -52t27.5 -19q16 0 45 18.5t52 43.5q13 13 18 13q12 0 12 -14q0 -70 -56 -118t-116 -60z" />
    <glyph glyph-name="egrave" unicode="&#xe8;" horiz-adv-x="427" 
d="M269 372q0 27 -11 27q-18 0 -53.5 -83t-35.5 -140q0 -16 1 -29q23 15 35 30q26 33 42 79t19 72t3 44zM397 361q0 -79 -74.5 -157t-129.5 -78q-11 0 -21 6q3 -28 38 -30q35 0 95 43q34 25 46 25q14 0 27 -8t13 -16q0 -12 -40 -47.5t-103.5 -69t-114.5 -33.5
q-61 0 -97 34.5t-36 93.5q0 43 19.5 99.5t51.5 105.5q44 67 108 104t120 37q46 0 72 -29t26 -80zM272 723q10 0 16.5 -7t17.5 -27q25 -51 72 -90q19 -15 19 -27q0 -22 -36 -22q-39 0 -74 14.5t-56 33.5t-33 36.5t-12 25.5q0 9 35.5 36t50.5 27z" />
    <glyph glyph-name="eacute" unicode="&#xe9;" horiz-adv-x="427" 
d="M269 372q0 27 -11 27q-18 0 -53.5 -83t-35.5 -140q0 -16 1 -29q23 15 35 30q26 33 42 79t19 72t3 44zM397 361q0 -79 -74.5 -157t-129.5 -78q-11 0 -21 6q3 -28 38 -30q35 0 95 43q34 25 46 25q14 0 27 -8t13 -16q0 -12 -40 -47.5t-103.5 -69t-114.5 -33.5
q-61 0 -97 34.5t-36 93.5q0 43 19.5 99.5t51.5 105.5q44 67 108 104t120 37q46 0 72 -29t26 -80zM271 607q23 25 50 66q11 17 15 21t12 8q65 24 102 24q15 0 15 -13q0 -21 -32 -59t-84 -70.5t-98 -32.5q-21 0 -21 15q0 9 19 23q8 6 22 18z" />
    <glyph glyph-name="ecircumflex" unicode="&#xea;" horiz-adv-x="427" 
d="M269 372q0 27 -11 27q-18 0 -53.5 -83t-35.5 -140q0 -16 1 -29q23 15 35 30q26 33 42 79t19 72t3 44zM397 361q0 -79 -74.5 -157t-129.5 -78q-11 0 -21 6q3 -28 38 -30q35 0 95 43q34 25 46 25q14 0 27 -8t13 -16q0 -12 -40 -47.5t-103.5 -69t-114.5 -33.5
q-61 0 -97 34.5t-36 93.5q0 43 19.5 99.5t51.5 105.5q44 67 108 104t120 37q46 0 72 -29t26 -80zM296 618q-60 -37 -87 -37q-33 0 -33 25q0 17 24 32.5t84 37.5q58 22 71 22q12 0 30 -19q34 -37 59 -57q21 -18 21 -24q0 -12 -21 -22t-46 -10q-49 0 -102 52z" />
    <glyph glyph-name="edieresis" unicode="&#xeb;" horiz-adv-x="427" 
d="M269 372q0 27 -11 27q-18 0 -53.5 -83t-35.5 -140q0 -16 1 -29q23 15 35 30q26 33 42 79t19 72t3 44zM397 361q0 -79 -74.5 -157t-129.5 -78q-11 0 -21 6q3 -28 38 -30q35 0 95 43q34 25 46 25q14 0 27 -8t13 -16q0 -12 -40 -47.5t-103.5 -69t-114.5 -33.5
q-61 0 -97 34.5t-36 93.5q0 43 19.5 99.5t51.5 105.5q44 67 108 104t120 37q46 0 72 -29t26 -80zM197 571q-41 0 -41 30q0 16 13 45.5t23 38.5q11 11 38.5 18.5t54.5 7.5q32 0 32 -29q0 -43 -36.5 -77t-83.5 -34zM389 550q-60 0 -60 45q0 44 27 71q19 19 73 19q46 0 46 -26
q0 -15 -16 -47t-32 -49q-13 -13 -38 -13z" />
    <glyph glyph-name="igrave" unicode="&#xec;" horiz-adv-x="250" 
d="M91 -4q-24 0 -44 20q-32 33 -32 101q0 82 29.5 184t66.5 147q15 18 41 18q63 0 63 -99q0 -88 -30 -205t-61 -153q-10 -13 -33 -13zM199 723q10 0 16.5 -7t17.5 -27q25 -51 72 -90q19 -15 19 -27q0 -22 -36 -22q-39 0 -74 14.5t-56 33.5t-33 36.5t-12 25.5q0 9 35.5 36
t50.5 27z" />
    <glyph glyph-name="iacute" unicode="&#xed;" horiz-adv-x="250" 
d="M91 -4q-24 0 -44 20q-32 33 -32 101q0 82 29.5 184t66.5 147q15 18 41 18q63 0 63 -99q0 -88 -30 -205t-61 -153q-10 -13 -33 -13zM198 607q23 25 50 66q11 17 15 21t12 8q65 24 102 24q15 0 15 -13q0 -21 -32 -59t-84 -70.5t-98 -32.5q-21 0 -21 15q0 9 19 23q8 6 22 18
z" />
    <glyph glyph-name="icircumflex" unicode="&#xee;" horiz-adv-x="250" 
d="M91 -4q-24 0 -44 20q-32 33 -32 101q0 82 29.5 184t66.5 147q15 18 41 18q63 0 63 -99q0 -88 -30 -205t-61 -153q-10 -13 -33 -13zM223 618q-60 -37 -87 -37q-33 0 -33 25q0 17 24 32.5t84 37.5q58 22 71 22q12 0 30 -19q34 -37 59 -57q21 -18 21 -24q0 -12 -21 -22
t-46 -10q-49 0 -102 52z" />
    <glyph glyph-name="idieresis" unicode="&#xef;" horiz-adv-x="250" 
d="M91 -4q-24 0 -44 20q-32 33 -32 101q0 82 29.5 184t66.5 147q15 18 41 18q63 0 63 -99q0 -88 -30 -205t-61 -153q-10 -13 -33 -13zM124 571q-41 0 -41 30q0 16 13 45.5t23 38.5q11 11 38.5 18.5t54.5 7.5q32 0 32 -29q0 -43 -36.5 -77t-83.5 -34zM316 550q-60 0 -60 45
q0 44 27 71q19 19 73 19q46 0 46 -26q0 -15 -16 -47t-32 -49q-13 -13 -38 -13z" />
    <glyph glyph-name="eth" unicode="&#xf0;" horiz-adv-x="542" 
d="M332 244q-26 -23 -42 -23q-5 0 -5 7q0 1 0.5 2.5t1 4t0.5 5.5q8 32 8 64q0 40 -10.5 67.5t-24.5 27.5q-26 0 -50.5 -71.5t-24.5 -146.5q0 -44 15 -69.5t41 -25.5q31 0 55 42t36 116zM217 673l-11 11q41 22 88 22q30 0 51 -9t47 -34l13 7q58 34 72 34q12 0 12 -15
t-8.5 -22t-50.5 -30l-12 -7q23 -36 37 -61.5t30.5 -82t16.5 -116.5q0 -152 -103 -267.5t-239 -115.5q-139 0 -139 146q0 77 39 156t99.5 130t118.5 51q29 0 65 -24q-4 51 -46 124l-15 -6q-70 -31 -80 -31t-10 10q0 9 15 19t69 40q-24 35 -59 71z" />
    <glyph glyph-name="ntilde" unicode="&#xf1;" horiz-adv-x="510" 
d="M207 258l31 34q62 69 95.5 94t64.5 25q34 0 48.5 -19t14.5 -64q0 -9 -5 -62t-5 -87q0 -40 7 -82q0 -2 4 -15t6.5 -25t2.5 -18q0 -14 -32.5 -29.5t-55.5 -15.5q-43 0 -70.5 41.5t-27.5 106.5q0 28 6 69q-55 -55 -107.5 -121.5t-72.5 -88.5q-19 -18 -41 -18
q-31 0 -50.5 23.5t-19.5 60.5q0 67 38 196.5t85 178.5q22 22 53 22q51 0 51 -66q0 -53 -20 -140zM237 581q-25 0 -25 16q0 21 52 42t83 21t65 -25q26 -18 40 -18q15 0 31 5l14 2q14 0 14 -14t-39.5 -35.5t-68.5 -21.5q-31 0 -69 27q-23 16 -35 16q-4 0 -30.5 -7.5
t-31.5 -7.5z" />
    <glyph glyph-name="ograve" unicode="&#xf2;" horiz-adv-x="542" 
d="M331 483q74 0 74 -17q0 -19 -34 -21q-79 -5 -135 -77.5t-56 -169.5q0 -53 24.5 -85.5t65.5 -32.5q37 0 65 38t28 89q0 88 -68 139q-14 11 -14 16q0 13 44 35t73 22q45 0 77 -44.5t32 -107.5q0 -51 -20 -101.5t-52 -82.5q-41 -40 -99 -65t-110 -25q-92 0 -155.5 44
t-63.5 131q0 75 47.5 149t123 120t153.5 46zM330 723q10 0 16.5 -7t17.5 -27q25 -51 72 -90q19 -15 19 -27q0 -22 -36 -22q-39 0 -74 14.5t-56 33.5t-33 36.5t-12 25.5q0 9 35.5 36t50.5 27z" />
    <glyph glyph-name="oacute" unicode="&#xf3;" horiz-adv-x="542" 
d="M331 483q74 0 74 -17q0 -19 -34 -21q-79 -5 -135 -77.5t-56 -169.5q0 -53 24.5 -85.5t65.5 -32.5q37 0 65 38t28 89q0 88 -68 139q-14 11 -14 16q0 13 44 35t73 22q45 0 77 -44.5t32 -107.5q0 -51 -20 -101.5t-52 -82.5q-41 -40 -99 -65t-110 -25q-92 0 -155.5 44
t-63.5 131q0 75 47.5 149t123 120t153.5 46zM329 607q23 25 50 66q11 17 15 21t12 8q65 24 102 24q15 0 15 -13q0 -21 -32 -59t-84 -70.5t-98 -32.5q-21 0 -21 15q0 9 19 23q8 6 22 18z" />
    <glyph glyph-name="ocircumflex" unicode="&#xf4;" horiz-adv-x="542" 
d="M331 483q74 0 74 -17q0 -19 -34 -21q-79 -5 -135 -77.5t-56 -169.5q0 -53 24.5 -85.5t65.5 -32.5q37 0 65 38t28 89q0 88 -68 139q-14 11 -14 16q0 13 44 35t73 22q45 0 77 -44.5t32 -107.5q0 -51 -20 -101.5t-52 -82.5q-41 -40 -99 -65t-110 -25q-92 0 -155.5 44
t-63.5 131q0 75 47.5 149t123 120t153.5 46zM354 618q-60 -37 -87 -37q-33 0 -33 25q0 17 24 32.5t84 37.5q58 22 71 22q12 0 30 -19q34 -37 59 -57q21 -18 21 -24q0 -12 -21 -22t-46 -10q-49 0 -102 52z" />
    <glyph glyph-name="otilde" unicode="&#xf5;" horiz-adv-x="542" 
d="M331 483q74 0 74 -17q0 -19 -34 -21q-79 -5 -135 -77.5t-56 -169.5q0 -53 24.5 -85.5t65.5 -32.5q37 0 65 38t28 89q0 88 -68 139q-14 11 -14 16q0 13 44 35t73 22q45 0 77 -44.5t32 -107.5q0 -51 -20 -101.5t-52 -82.5q-41 -40 -99 -65t-110 -25q-92 0 -155.5 44
t-63.5 131q0 75 47.5 149t123 120t153.5 46zM253 581q-25 0 -25 16q0 21 52 42t83 21t65 -25q26 -18 40 -18q15 0 31 5l14 2q14 0 14 -14t-39.5 -35.5t-68.5 -21.5q-31 0 -69 27q-23 16 -35 16q-4 0 -30.5 -7.5t-31.5 -7.5z" />
    <glyph glyph-name="odieresis" unicode="&#xf6;" horiz-adv-x="542" 
d="M331 483q74 0 74 -17q0 -19 -34 -21q-79 -5 -135 -77.5t-56 -169.5q0 -53 24.5 -85.5t65.5 -32.5q37 0 65 38t28 89q0 88 -68 139q-14 11 -14 16q0 13 44 35t73 22q45 0 77 -44.5t32 -107.5q0 -51 -20 -101.5t-52 -82.5q-41 -40 -99 -65t-110 -25q-92 0 -155.5 44
t-63.5 131q0 75 47.5 149t123 120t153.5 46zM255 571q-41 0 -41 30q0 16 13 45.5t23 38.5q11 11 38.5 18.5t54.5 7.5q32 0 32 -29q0 -43 -36.5 -77t-83.5 -34zM447 550q-60 0 -60 45q0 44 27 71q19 19 73 19q46 0 46 -26q0 -15 -16 -47t-32 -49q-13 -13 -38 -13z" />
    <glyph glyph-name="divide" unicode="&#xf7;" horiz-adv-x="668" 
d="M270 532q0 26 18 44t44 18t44.5 -18t18.5 -44t-18 -44.5t-44 -18.5t-44.5 18.5t-18.5 44.5zM63 281v99h543v-99h-543zM270 130q0 26 18 44t44 18t44.5 -18t18.5 -44t-18 -44.5t-44 -18.5t-44.5 18.5t-18.5 44.5z" />
    <glyph glyph-name="oslash" unicode="&#xf8;" horiz-adv-x="542" 
d="M183 166l151 135q-18 32 -57 60q65 56 121 56q33 0 57 -23q31 23 37 23q14 0 14 -21q0 -14 -22 -39q22 -35 22 -95q0 -68 -29.5 -122.5t-74 -85.5t-90.5 -47t-86 -16q-83 0 -156 42q-34 -20 -44 -20t-10 9q0 6 28 34q-41 39 -41 105q0 116 95 211q110 111 234 111
q59 0 68 -9q5 -3 5 -9q0 -17 -35 -20q-38 -3 -66 -18q-50 -23 -87 -88.5t-37 -140.5q0 -6 3 -32zM355 253l-158 -132q25 -43 76 -43q36 0 63 40.5t27 94.5q0 19 -8 40z" />
    <glyph glyph-name="ugrave" unicode="&#xf9;" horiz-adv-x="531" 
d="M300 282l16 17q93 92 132 92t39 -68q0 -11 -3 -51q-6 -69 -6 -118q0 -27 1 -39q0 -5 2 -24.5t4 -36t2 -17.5q0 -15 -26.5 -26t-61.5 -11q-100 0 -100 109q0 17 3 44l-42 -32q-158 -125 -200 -125q-27 0 -43 22t-16 57q0 121 65 290q22 57 50.5 83.5t69.5 26.5
q31 0 49.5 -19t18.5 -50q0 -38 -30 -103l-7 -14q-41 -88 -41 -108q0 -11 8 -11q12 0 55 48q17 20 43 46zM324 723q10 0 16.5 -7t17.5 -27q25 -51 72 -90q19 -15 19 -27q0 -22 -36 -22q-39 0 -74 14.5t-56 33.5t-33 36.5t-12 25.5q0 9 35.5 36t50.5 27z" />
    <glyph glyph-name="uacute" unicode="&#xfa;" horiz-adv-x="531" 
d="M300 282l16 17q93 92 132 92t39 -68q0 -11 -3 -51q-6 -69 -6 -118q0 -27 1 -39q0 -5 2 -24.5t4 -36t2 -17.5q0 -15 -26.5 -26t-61.5 -11q-100 0 -100 109q0 17 3 44l-42 -32q-158 -125 -200 -125q-27 0 -43 22t-16 57q0 121 65 290q22 57 50.5 83.5t69.5 26.5
q31 0 49.5 -19t18.5 -50q0 -38 -30 -103l-7 -14q-41 -88 -41 -108q0 -11 8 -11q12 0 55 48q17 20 43 46zM323 607q23 25 50 66q11 17 15 21t12 8q65 24 102 24q15 0 15 -13q0 -21 -32 -59t-84 -70.5t-98 -32.5q-21 0 -21 15q0 9 19 23q8 6 22 18z" />
    <glyph glyph-name="ucircumflex" unicode="&#xfb;" horiz-adv-x="531" 
d="M300 282l16 17q93 92 132 92t39 -68q0 -11 -3 -51q-6 -69 -6 -118q0 -27 1 -39q0 -5 2 -24.5t4 -36t2 -17.5q0 -15 -26.5 -26t-61.5 -11q-100 0 -100 109q0 17 3 44l-42 -32q-158 -125 -200 -125q-27 0 -43 22t-16 57q0 121 65 290q22 57 50.5 83.5t69.5 26.5
q31 0 49.5 -19t18.5 -50q0 -38 -30 -103l-7 -14q-41 -88 -41 -108q0 -11 8 -11q12 0 55 48q17 20 43 46zM348 618q-60 -37 -87 -37q-33 0 -33 25q0 17 24 32.5t84 37.5q58 22 71 22q12 0 30 -19q34 -37 59 -57q21 -18 21 -24q0 -12 -21 -22t-46 -10q-49 0 -102 52z" />
    <glyph glyph-name="udieresis" unicode="&#xfc;" horiz-adv-x="531" 
d="M300 282l16 17q93 92 132 92t39 -68q0 -11 -3 -51q-6 -69 -6 -118q0 -27 1 -39q0 -5 2 -24.5t4 -36t2 -17.5q0 -15 -26.5 -26t-61.5 -11q-100 0 -100 109q0 17 3 44l-42 -32q-158 -125 -200 -125q-27 0 -43 22t-16 57q0 121 65 290q22 57 50.5 83.5t69.5 26.5
q31 0 49.5 -19t18.5 -50q0 -38 -30 -103l-7 -14q-41 -88 -41 -108q0 -11 8 -11q12 0 55 48q17 20 43 46zM249 571q-41 0 -41 30q0 16 13 45.5t23 38.5q11 11 38.5 18.5t54.5 7.5q32 0 32 -29q0 -43 -36.5 -77t-83.5 -34zM441 550q-60 0 -60 45q0 44 27 71q19 19 73 19
q46 0 46 -26q0 -15 -16 -47t-32 -49q-13 -13 -38 -13z" />
    <glyph glyph-name="yacute" unicode="&#xfd;" horiz-adv-x="500" 
d="M342 335l6 21q14 50 39 74q37 39 77 39q32 0 32 -27q0 -41 -65.5 -189t-128.5 -235q-60 -83 -131.5 -136t-124.5 -53q-22 0 -22 19q0 37 27 76q20 31 107 71q-51 85 -78 150q-40 96 -40 173q0 59 15 96q11 27 38.5 41.5t60.5 14.5q32 0 43 -24.5t19 -112.5
q13 -120 37 -227q59 127 89 229zM335 607q23 25 50 66q11 17 15 21t12 8q65 24 102 24q15 0 15 -13q0 -21 -32 -59t-84 -70.5t-98 -32.5q-21 0 -21 15q0 9 19 23q8 6 22 18z" />
    <glyph glyph-name="thorn" unicode="&#xfe;" horiz-adv-x="552" 
d="M225 321l18 28q9 13 26 39.5t25 39.5q30 46 89 46q57 0 91 -48.5t34 -129.5q0 -118 -73.5 -212t-165.5 -94q-67 0 -101 64l-1 1q-35 -113 -54 -164t-35 -64q-11 -10 -25 -10q-59 0 -59 104q0 83 23 190q27 134 96.5 339t130.5 247q13 8 29 8q41 0 41 -38q0 -13 -2 -25z
M189 112q16 -39 52 -39q41 0 71 52t30 123q0 35 -5 62.5t-12 27.5t-32.5 -35t-56 -89.5t-47.5 -101.5z" />
    <glyph glyph-name="ydieresis" unicode="&#xff;" horiz-adv-x="500" 
d="M342 335l6 21q14 50 39 74q37 39 77 39q32 0 32 -27q0 -41 -65.5 -189t-128.5 -235q-60 -83 -131.5 -136t-124.5 -53q-22 0 -22 19q0 37 27 76q20 31 107 71q-51 85 -78 150q-40 96 -40 173q0 59 15 96q11 27 38.5 41.5t60.5 14.5q32 0 43 -24.5t19 -112.5
q13 -120 37 -227q59 127 89 229zM261 571q-41 0 -41 30q0 16 13 45.5t23 38.5q11 11 38.5 18.5t54.5 7.5q32 0 32 -29q0 -43 -36.5 -77t-83.5 -34zM453 550q-60 0 -60 45q0 44 27 71q19 19 73 19q46 0 46 -26q0 -15 -16 -47t-32 -49q-13 -13 -38 -13z" />
    <glyph glyph-name="dotlessi" unicode="&#x131;" horiz-adv-x="250" 
d="M91 -4q-24 0 -44 20q-32 33 -32 101q0 82 29.5 184t66.5 147q15 18 41 18q63 0 63 -99q0 -88 -30 -205t-61 -153q-10 -13 -33 -13z" />
    <glyph glyph-name="Lslash" unicode="&#x141;" horiz-adv-x="385" 
d="M180 104q50 4 109 17q39 8 53 8q16 0 16 -13q0 -16 -18.5 -45t-41.5 -51q-16 -15 -47.5 -20.5t-99.5 -5.5q-87 0 -114 9.5t-27 48.5q0 36 35 179l9 34q-31 -15 -44 -15t-13 11q0 13 20.5 28.5t50.5 24.5l9 32q67 237 95 275q30 50 133 50q32 0 46 -9t14 -29
q0 -41 -80 -236l-8 -20q73 37 95 37q11 0 11 -18q0 -23 -30 -40t-102 -44l-7 -20q-39 -105 -64 -188z" />
    <glyph glyph-name="lslash" unicode="&#x142;" horiz-adv-x="464" 
d="M243 311l71 37q19 56 32.5 122t13.5 100q0 9 -5 9t-20.5 -20.5t-42.5 -87t-49 -160.5zM279 277l-48 -24q-4 -37 -4 -65q0 -69 27 -69q26 0 60 24t60 62q21 29 33 29q15 0 15 -24q0 -80 -70 -147t-152 -67q-64 0 -106.5 41.5t-42.5 103.5q0 15 3 41q-49 -18 -63 -18
q-11 0 -11 9q0 22 85 58q16 67 30.5 106t47.5 99q17 31 40 66t55.5 75.5t70 67t70.5 26.5q41 0 67 -36t26 -91q0 -60 -21 -131l47 23q22 11 35 11q15 0 15 -14q0 -21 -21 -31l-99 -49q-33 -56 -81.5 -98.5t-78.5 -42.5q-16 0 -16 14q0 6 27 51z" />
    <glyph glyph-name="OE" unicode="&#x152;" horiz-adv-x="1031" 
d="M333 78q43 2 70 30q34 36 58 110.5t24 144.5q0 82 -37.5 136.5t-93.5 54.5q-58 0 -102 -82t-44 -189q0 -140 69 -187q27 -18 56 -18zM663 344q17 0 124 1.5t128 1.5t30 -1t16.5 -5.5t7.5 -15.5q0 -16 -35.5 -56t-61.5 -44q-13 -3 -173 -5q-27 0 -48 -1q10 -50 30.5 -72
t55.5 -22q80 0 186 67q34 23 47 23q16 0 16 -15q0 -19 -13 -49.5t-26 -42.5q-45 -42 -133.5 -78.5t-144.5 -36.5q-64 0 -104 24.5t-68 78.5q-26 -30 -44.5 -44.5t-52.5 -30.5q-63 -30 -132 -30q-111 0 -176.5 71t-65.5 192q0 95 63 193.5t161.5 162.5t192.5 64
q72 0 121.5 -42t59.5 -111q48 48 81 76.5t87 54.5t108 26q53 0 83 -28t30 -78q0 -46 -23 -86.5t-56.5 -65.5t-68 -39t-60.5 -14q-25 0 -25 14q0 10 31 35q35 28 56.5 74.5t21.5 87.5q0 27 -14 27q-15 0 -46 -18.5t-66 -50t-64 -83.5t-36 -109z" />
    <glyph glyph-name="oe" unicode="&#x153;" horiz-adv-x="802" 
d="M651 371q0 33 -11 33q-13 0 -40.5 -25.5t-53.5 -76t-26 -103.5q0 -26 13 -51q38 36 56 61.5t38 67.5q24 57 24 94zM16 167q0 62 33.5 122.5t83 103t105.5 68.5t102 26q20 0 34.5 -8t14.5 -20q0 -8 -6.5 -13t-24.5 -11q-80 -26 -124 -88.5t-44 -149.5q0 -52 27 -87.5
t68 -35.5q38 0 64.5 36t26.5 88q0 60 -55 126q-18 21 -18 30q0 12 40.5 32t74.5 20q21 0 34 -7.5t29 -27.5q90 101 182 101q50 0 84 -32t34 -79t-29 -93t-67.5 -76t-73 -49t-48.5 -19q-5 0 -23 2q18 -32 47 -32t81 34q34 21 47 21q9 0 16.5 -8.5t7.5 -19.5q0 -23 -42.5 -56
t-103.5 -58t-106 -25q-71 0 -100 63q-72 -70 -170 -70q-91 0 -146 52.5t-55 139.5z" />
    <glyph glyph-name="Scaron" unicode="&#x160;" horiz-adv-x="510" 
d="M157 313q-41 41 -58.5 74.5t-17.5 71.5q0 87 75 151t176 64q74 0 115 -31.5t41 -89.5q0 -50 -43.5 -98t-69.5 -48q-12 0 -12 19q0 4 2 28t2 28q0 39 -15.5 75t-32.5 36q-12 0 -27 -25.5t-15 -53.5q0 -34 15 -59.5t56 -62.5q59 -53 82 -93t23 -87q0 -88 -64 -157.5
t-146 -69.5q-87 0 -158 57.5t-71 100.5q0 30 43 58t72 28q17 0 26.5 -13t18.5 -48q26 -95 70 -95q19 0 30.5 15.5t11.5 41.5q0 40 -30 85q-14 22 -65 67q-13 11 -34 31zM387 849q66 35 90 35q30 0 30 -25q0 -14 -16 -25.5t-64 -31.5q-78 -34 -98 -34q-12 0 -33 24
q-20 22 -54 51q-22 18 -22 26q0 11 22.5 21t48.5 10q27 0 47 -11t49 -40z" />
    <glyph glyph-name="scaron" unicode="&#x161;" horiz-adv-x="448" 
d="M224 65q0 26 -19 38t-63 26q-20 6 -32 10t-31.5 13t-30.5 19t-20 26.5t-9 35.5q0 86 87.5 163t185.5 77q48 0 83 -31.5t35 -74.5t-37 -85t-75 -42q-14 0 -24 5.5t-10 13.5q0 7 4 20q11 42 11 72q0 21 -6 39t-15 18q-7 0 -23 -15t-31 -46t-15 -65q0 -25 18 -37.5t71 -24.5
q74 -17 99.5 -38t25.5 -57q0 -67 -86 -139q-91 -74 -196 -74q-54 0 -85 21.5t-31 58.5q0 41 42.5 78t88.5 37q22 0 22 -10q0 -2 -7 -16q-18 -34 -18 -62q0 -40 19 -40q26 0 49 27.5t23 58.5zM356 646q66 35 90 35q30 0 30 -25q0 -14 -16 -25.5t-64 -31.5q-78 -34 -98 -34
q-12 0 -33 24q-20 22 -54 51q-22 18 -22 26q0 11 22.5 21t48.5 10q27 0 47 -11t49 -40z" />
    <glyph glyph-name="Ydieresis" unicode="&#x178;" horiz-adv-x="688" 
d="M372 160q68 140 108 249q23 65 40 100q29 63 82.5 102t81.5 39q19 0 19 -15q0 -30 -98.5 -231t-162.5 -304q-54 -87 -103.5 -143.5t-77 -75t-61.5 -33.5q-55 -22 -98 -22q-55 0 -55 35q0 18 18 54.5t36 55.5q11 11 43 11q66 0 133 44q-73 125 -111 229q-57 161 -57 290
q0 34 7.5 51.5t27.5 30.5q29 18 64 31t57 13q19 0 26 -14t8 -57q5 -109 24 -232t49 -208zM348 774q-41 0 -41 30q0 16 13 45.5t23 38.5q11 11 38.5 18.5t54.5 7.5q32 0 32 -29q0 -43 -36.5 -77t-83.5 -34zM540 753q-60 0 -60 45q0 44 27 71q19 19 73 19q46 0 46 -26
q0 -15 -16 -47t-32 -49q-13 -13 -38 -13z" />
    <glyph glyph-name="Zcaron" unicode="&#x17d;" horiz-adv-x="625" 
d="M206 309l42 47q118 129 154 193q-33 -3 -95 -17q-83 -20 -140 -23q-51 2 -51 39q0 15 17.5 44.5t41.5 54.5q19 17 54 18q26 0 59 1l68 2l53 2q12 0 32 0.5t38 0.5q32 0 48.5 -0.5t39.5 -4t33.5 -11.5t10.5 -22t-30 -50q-25 -30 -101 -135l-26 -37q-105 -150 -153 -237
q114 3 213 26q28 6 35 6q24 0 24 -24t-18 -60t-41 -57q-31 -30 -98 -47.5t-149 -17.5q-110 0 -173.5 22t-63.5 60q0 22 28 59.5t105 120.5q30 34 43 47zM444 849q66 35 90 35q30 0 30 -25q0 -14 -16 -25.5t-64 -31.5q-78 -34 -98 -34q-12 0 -33 24q-20 22 -54 51
q-22 18 -22 26q0 11 22.5 21t48.5 10q27 0 47 -11t49 -40z" />
    <glyph glyph-name="zcaron" unicode="&#x17e;" horiz-adv-x="427" 
d="M95 186l41 47q70 78 115 144l-23 -8q-117 -39 -170 -39q-37 0 -37 33q0 30 30.5 70.5t81.5 40.5q1 0 15.5 -0.5t27.5 -0.5q159 -6 182 -11q36 -8 36 -31q0 -31 -171 -285l-18 -26q80 -2 143 23q15 5 18 5q15 0 15 -26q0 -65 -49.5 -108.5t-124.5 -43.5q-92 0 -153.5 24
t-61.5 60q0 14 12.5 30t74.5 85zM345 646q66 35 90 35q30 0 30 -25q0 -14 -16 -25.5t-64 -31.5q-78 -34 -98 -34q-12 0 -33 24q-20 22 -54 51q-22 18 -22 26q0 11 22.5 21t48.5 10q27 0 47 -11t49 -40z" />
    <glyph glyph-name="florin" unicode="&#x192;" horiz-adv-x="556" 
d="M235 415h-98l18 103h98l8 44q11 62 15 75.5t15 31.5q34 59 138 59q63 0 131 -20l-27 -111q-42 14 -75 14q-18 0 -29 -4t-17.5 -15t-9 -19.5t-6.5 -27.5l-5 -27h101l-18 -103h-100l-84 -477q-5 -28 -9.5 -45t-16 -39t-27.5 -34.5t-43.5 -21t-65.5 -8.5q-74 0 -136 19
l28 108q57 -11 85 -11q21 0 32.5 11t15 25t9.5 47z" />
    <glyph glyph-name="circumflex" unicode="&#x2c6;" horiz-adv-x="335" 
d="M250 618q-60 -37 -87 -37q-33 0 -33 25q0 17 24 32.5t84 37.5q58 22 71 22q12 0 30 -19q34 -37 59 -57q21 -18 21 -24q0 -12 -21 -22t-46 -10q-49 0 -102 52z" />
    <glyph glyph-name="caron" unicode="&#x2c7;" 
d="M298 646q66 35 90 35q30 0 30 -25q0 -14 -16 -25.5t-64 -31.5q-78 -34 -98 -34q-12 0 -33 24q-20 22 -54 51q-22 18 -22 26q0 11 22.5 21t48.5 10q27 0 47 -11t49 -40z" />
    <glyph glyph-name="breve" unicode="&#x2d8;" 
d="M164 698q11 0 37 -16q48 -29 88 -29t92 31q23 13 31 13q20 0 20 -21q0 -30 -49 -70t-108 -40q-50 0 -90.5 33t-40.5 75q0 10 6 17t14 7z" />
    <glyph glyph-name="dotaccent" unicode="&#x2d9;" 
d="M318 606q-49 2 -66 19q-7 7 -7 22q0 32 11 52t31 27.5t33.5 9.5t33.5 2q26 0 36.5 -6.5t10.5 -22.5t-13 -44.5t-27 -42.5q-16 -16 -43 -16z" />
    <glyph glyph-name="ring" unicode="&#x2da;" 
d="M237 702q32 31 61 31q31 0 53 -24t22 -58q0 -43 -34 -73t-82 -30q-47 0 -72.5 19.5t-25.5 54.5q0 32 22 54.5t56 25.5zM281 594q15 0 26 11t11 26q0 20 -16.5 31t-44.5 11q-29 0 -29 -14q0 -28 9 -40q8 -10 22 -17.5t22 -7.5z" />
    <glyph glyph-name="ogonek" unicode="&#x2db;" 
d="M53 11h52q-15 -36 -15 -59q0 -25 16.5 -39.5t44.5 -14.5q2 0 16.5 2t17.5 2q16 0 16 -15t-35 -37t-66 -22q-37 0 -58 21t-21 58q0 40 32 104z" />
    <glyph glyph-name="tilde" unicode="&#x2dc;" horiz-adv-x="347" 
d="M155 581q-25 0 -25 16q0 21 52 42t83 21t65 -25q26 -18 40 -18q15 0 31 5q3 0 6 0.5t5 1t3 0.5q14 0 14 -14t-39.5 -35.5t-68.5 -21.5q-31 0 -69 27q-23 16 -35 16q-4 0 -30.5 -7.5t-31.5 -7.5z" />
    <glyph glyph-name="hungarumlaut" unicode="&#x2dd;" 
d="M224 607q23 25 50 66q11 17 15 21t12 8q65 24 102 24q15 0 15 -13q0 -21 -32 -59t-84 -70.5t-98 -32.5q-21 0 -21 15q0 9 19 23q8 6 22 18zM516 607q19 19 51 66q14 24 26 29q68 24 103 24q14 0 14 -13q0 -20 -32 -58.5t-84 -71t-97 -32.5q-22 0 -22 15q0 9 19 23
q11 7 22 18z" />
    <glyph glyph-name="endash" unicode="&#x2013;" horiz-adv-x="500" 
d="M0 192v122h500v-122h-500z" />
    <glyph glyph-name="emdash" unicode="&#x2014;" horiz-adv-x="1000" 
d="M0 192v122h1000v-122h-1000z" />
    <glyph glyph-name="quoteleft" unicode="&#x2018;" horiz-adv-x="208" 
d="M170 468q-24 0 -43 25.5t-19 58.5q0 42 36.5 84.5t58.5 42.5q7 0 12.5 -6.5t5.5 -13.5q0 -5 -6 -18q-10 -17 -10 -32q0 -20 28 -45q24 -22 24 -35q0 -18 -34.5 -39.5t-52.5 -21.5z" />
    <glyph glyph-name="quoteright" unicode="&#x2019;" horiz-adv-x="208" 
d="M135 679q24 0 43 -25.5t19 -58.5q0 -42 -36.5 -84.5t-58.5 -42.5q-7 0 -12.5 6.5t-5.5 13.5q0 4 6 18q10 18 10 32q0 20 -28 45q-24 23 -24 35q0 18 34.5 39.5t52.5 21.5z" />
    <glyph glyph-name="quotesinglbase" unicode="&#x201a;" horiz-adv-x="219" 
d="M52 -87q-29 0 -29 33q0 35 22.5 90t48.5 86q23 26 68 26t45 -29q0 -25 -28 -84t-54 -85q-35 -37 -73 -37z" />
    <glyph glyph-name="quotedblleft" unicode="&#x201c;" 
d="M140 468q-24 0 -43 25.5t-19 58.5q0 42 36.5 84.5t58.5 42.5q7 0 12.5 -6.5t5.5 -13.5q0 -5 -6 -18q-10 -17 -10 -32q0 -20 28 -45q24 -22 24 -35q0 -18 -34.5 -39.5t-52.5 -21.5zM315 468q-24 0 -43 25.5t-19 58.5q0 42 36.5 84.5t58.5 42.5q7 0 12.5 -6.5t5.5 -13.5
q0 -5 -6 -18q-10 -17 -10 -32q0 -20 28 -45q24 -22 24 -35q0 -18 -34.5 -39.5t-52.5 -21.5z" />
    <glyph glyph-name="quotedblright" unicode="&#x201d;" 
d="M341 679q24 0 43 -25.5t19 -58.5q0 -42 -36.5 -84.5t-58.5 -42.5q-7 0 -12.5 6.5t-5.5 13.5q0 4 6 18q10 18 10 32q0 20 -28 45q-24 23 -24 35q0 18 34.5 39.5t52.5 21.5zM166 679q24 0 43 -25.5t19 -58.5q0 -42 -36.5 -84.5t-58.5 -42.5q-7 0 -12.5 6.5t-5.5 13.5
q0 4 6 18q10 18 10 32q0 20 -28 45q-24 23 -24 35q0 18 34.5 39.5t52.5 21.5z" />
    <glyph glyph-name="quotedblbase" unicode="&#x201e;" horiz-adv-x="331" 
d="M-71 -87q-29 0 -29 33q0 35 22.5 90t48.5 86q23 26 68 26t45 -29q0 -25 -28 -84t-54 -85q-35 -37 -73 -37zM107 -87q-29 0 -29 33q0 35 22.5 90t48.5 86q23 26 68 26t45 -29q0 -25 -28 -84t-54 -85q-35 -37 -73 -37z" />
    <glyph glyph-name="dagger" unicode="&#x2020;" horiz-adv-x="458" 
d="M294 335l-6 -20q-36 -126 -83.5 -246t-72.5 -142q-10 -10 -24 -10q-22 0 -36.5 18t-14.5 45q0 73 68 332l6 25q-59 5 -83 16.5t-24 33.5q0 29 29.5 44t104.5 23q34 159 65 192q14 14 43 23.5t58 9.5q28 0 40 -12.5t12 -42.5q0 -62 -38 -162q33 -1 48.5 -2t32.5 -5.5
t23 -13.5t6 -24q0 -41 -37 -60.5t-117 -21.5z" />
    <glyph glyph-name="daggerdbl" unicode="&#x2021;" horiz-adv-x="458" 
d="M118 276l22 83q-58 4 -82 16t-24 35q0 53 129 63q24 90 35 122t27 50q37 34 102 34q49 0 49 -55q0 -33 -28 -125l-4 -15q65 0 87.5 -9.5t22.5 -36.5q0 -39 -34.5 -56.5t-118.5 -22.5l-22 -74q33 0 50 -0.5t35.5 -4.5t26 -13t7.5 -25q0 -41 -38 -60.5t-123 -21.5
q-48 -147 -86 -213q-19 -30 -43 -30q-22 0 -34.5 17.5t-12.5 48.5q0 50 28 164l3 14q-112 6 -112 49q0 29 32 44.5t106 21.5z" />
    <glyph glyph-name="bullet" unicode="&#x2022;" horiz-adv-x="350" 
d="M51 350q0 52 36 88t87 36q52 0 88 -36t36 -88q0 -51 -36 -87t-88 -36q-51 0 -87 36t-36 87z" />
    <glyph glyph-name="ellipsis" unicode="&#x2026;" horiz-adv-x="1000" 
d="M167 -11q-34 0 -57.5 23.5t-23.5 56.5q0 34 23.5 57.5t57.5 23.5q33 0 56.5 -23.5t23.5 -57.5q0 -33 -23.5 -56.5t-56.5 -23.5zM500 -11q-34 0 -57.5 23.5t-23.5 57.5q0 33 23.5 56.5t57.5 23.5q33 0 56.5 -23.5t23.5 -56.5q0 -34 -23.5 -57.5t-56.5 -23.5zM833 -11
q-34 0 -57.5 23.5t-23.5 57.5q0 33 23.5 56.5t57.5 23.5q33 0 56.5 -23.5t23.5 -56.5q0 -34 -23.5 -57.5t-56.5 -23.5z" />
    <glyph glyph-name="perthousand" unicode="&#x2030;" horiz-adv-x="1281" 
d="M1194 382q4 2 9 2q22 0 42 -38t20 -79q0 -36 -15 -86.5t-41 -100.5t-69 -85t-92 -35q-50 0 -83.5 40.5t-33.5 99.5q0 42 14.5 91.5t41 96.5t71.5 78.5t100 31.5q20 0 36 -16zM1165 372q-50 -8 -85.5 -87t-35.5 -142q0 -40 19.5 -79.5t39.5 -39.5q25 0 50 71t25 130
q0 74 -35 107q-7 6 -7 9t29 31zM783 382q4 2 9 2q22 0 42 -38t20 -79q0 -36 -15 -86.5t-41.5 -100.5t-69.5 -85t-92 -35q-50 0 -83.5 40.5t-33.5 99.5q0 42 14.5 91.5t41 96.5t72 78.5t100.5 31.5q20 0 36 -16zM754 372q-35 -5 -64.5 -48.5t-43.5 -93t-14 -87.5
q0 -40 19.5 -79.5t39.5 -39.5q25 0 50.5 71t25.5 131q0 73 -36 106q-6 6 -6 9q0 4 29 31zM288 691q4 2 9 2q22 0 42 -38t20 -80q0 -36 -15 -86.5t-41.5 -100.5t-69.5 -85t-92 -35q-50 0 -83.5 40.5t-33.5 99.5q0 43 14.5 92.5t41 96.5t72 78.5t100.5 31.5q20 0 36 -16z
M259 681q-51 -8 -86.5 -87.5t-35.5 -142.5q0 -40 19.5 -79.5t39.5 -39.5q25 0 50.5 71.5t25.5 130.5q0 74 -36 107q-6 6 -6 9q0 4 29 31zM327 257l20 31l9 15q146 230 220 322q63 80 102 80q22 0 38 -18t16 -43t-18 -56.5t-79 -119.5l-17 -24l-15 -22q-146 -207 -282 -375
q-36 -46 -61.5 -68t-48.5 -22q-15 0 -26.5 10.5t-11.5 23.5q0 14 27.5 61.5t104.5 169.5q14 23 22 35z" />
    <glyph glyph-name="guilsinglleft" unicode="&#x2039;" horiz-adv-x="219" 
d="M84 209q0 -11 18 -33.5t40 -39.5q22 -16 22 -26q0 -7 -7.5 -12.5t-15.5 -5.5q-10 0 -29 11.5t-34 27.5q-19 19 -36.5 48.5t-17.5 39.5q0 27 74.5 83.5t91.5 56.5q7 0 13 -5.5t6 -11.5q0 -16 -55 -61q-70 -58 -70 -72z" />
    <glyph glyph-name="guilsinglright" unicode="&#x203a;" horiz-adv-x="219" 
d="M64 335q0 7 5.5 13t10.5 6q18 0 73.5 -58t55.5 -82q0 -19 -77 -72t-92 -53q-6 0 -11.5 5t-5.5 10q0 10 18.5 29.5t46.5 39.5q54 40 54 55q0 8 -16 30.5t-32 37.5q-28 26 -30 39z" />
    <glyph glyph-name="fraction" unicode="&#x2044;" horiz-adv-x="94" 
d="M205 435l-14 -21l-15 -22q-144 -215 -274 -378q-43 -55 -67 -73t-43 -18q-14 0 -24.5 9.5t-10.5 22.5q0 41 169 303q155 244 188 294t62 88q51 63 88 63q23 0 38 -16.5t15 -42.5t-22.5 -66t-89.5 -143z" />
    <glyph glyph-name="trademark" unicode="&#x2122;" horiz-adv-x="1000" 
d="M305 281h-66v339h-129v59h326v-59h-131v-339zM541 281h-61v398h98l100 -318l97 318h96v-398h-61v334l-102 -334h-60l-107 339v-339z" />
    <glyph glyph-name="minus" unicode="&#x2212;" horiz-adv-x="667" 
d="M62 278v105h543v-105h-543z" />
    <glyph glyph-name="fi" unicode="&#xfb01;" horiz-adv-x="531" 
d="M470 355q0 -88 -28 -200.5t-57 -143.5q-11 -11 -32 -11q-36 0 -60 30.5t-24 77.5q0 19 6 58q-27 -23 -43 -31.5t-45 -11.5q-11 -55 -17 -103q-21 -137 -38 -161q-28 -28 -66 -28t-54 18.5t-16 64.5q0 87 44 300q28 136 64 217q24 57 50 98.5t52 65t45 35.5t42 22
q48 19 91 19q103 0 103 -84q0 -42 -22 -71.5t-53 -29.5q-25 0 -39.5 14.5t-14.5 39.5q0 4 13 60q-5 1 -11 1q-25 0 -47 -25q-39 -44 -73.5 -140.5t-44.5 -180.5q35 -1 56.5 2t34 14t17 20t12.5 31q44 131 103 131q52 0 52 -98z" />
    <glyph glyph-name="fl" unicode="&#xfb02;" horiz-adv-x="732" 
d="M610 551q0 26 -12 26q-23 0 -63.5 -100.5t-68.5 -227.5q29 16 40 30q51 57 77.5 134t26.5 138zM211 246l87 -4q11 44 20 68t32 68q80 149 159 231q58 63 115 63q42 0 66.5 -36.5t24.5 -99.5q0 -110 -58 -197q-24 -37 -59.5 -73t-68.5 -58q-31 -20 -68 -34q1 -42 32 -42
q23 0 49.5 16.5t44.5 36t33.5 36t19.5 16.5q20 0 20 -34q0 -54 -71.5 -128.5t-143.5 -74.5q-69 0 -101.5 26.5t-54.5 97.5q-8 -1 -31 -5q-37 -6 -63 -7q-5 -26 -12 -83q-16 -143 -38 -172q-20 -19 -66 -19q-24 0 -39.5 7t-21 22t-7 25t-1.5 29v19q1 80 35.5 250t87.5 292
q48 114 84 152t80 38q52 0 52 -47q0 -69 -35 -172q-11 -22 -21 -22q-18 0 -18 19q0 4 2.5 29.5t2.5 30.5q0 43 -10 43q-7 0 -13 -25.5t-18 -99.5q-2 -12 -3 -19z" />
    </font>
</defs>
</svg>
